<svg xmlns="http://www.w3.org/2000/svg" xmlns:xlink="http://www.w3.org/1999/xlink" width="25.957" height="20.198" viewBox="0 0 25.957 20.198">
  <defs>
    <clipPath id="clip-path">
      <rect id="사각형_1688" data-name="사각형 1688" width="25.957" height="20.198" transform="translate(0 0)" fill="none"/>
    </clipPath>
  </defs>
  <g id="그룹_11592" data-name="그룹 11592" transform="translate(0 0)">
    <g id="그룹_11591" data-name="그룹 11591" clip-path="url(#clip-path)">
      <path id="패스_2981" data-name="패스 2981" d="M11.152,19.88a1.8,1.8,0,0,0,.646-1.212,1.981,1.981,0,0,0-.484-1.293L5.657,11.718H24.341a1.616,1.616,0,1,0,0-3.232H5.657L11.233,2.91A1.909,1.909,0,0,0,11.8,1.617a1.407,1.407,0,0,0-.323-.97A1.809,1.809,0,0,0,10.263,0,1.645,1.645,0,0,0,9.051.485L.485,8.97a1.658,1.658,0,0,0,0,2.344l8.4,8.4a1.833,1.833,0,0,0,2.263.162"/>
    </g>
  </g>
</svg>
