<svg id="그룹_10732" data-name="그룹 10732" xmlns="http://www.w3.org/2000/svg" width="116.644" height="104.123" viewBox="0 0 116.644 104.123">
  <g id="그룹_10741" data-name="그룹 10741" transform="translate(0 0)">
    <path id="패스_2836" data-name="패스 2836" d="M104.449,331.351H1.111A1.111,1.111,0,0,1,0,330.24V312.176a2.5,2.5,0,0,1,2.494-2.494H103.066a2.5,2.5,0,0,1,2.494,2.494V330.24a1.111,1.111,0,0,1-1.111,1.111M2.222,329.129H103.338V312.176a.272.272,0,0,0-.272-.272H2.494a.273.273,0,0,0-.272.272Z" transform="translate(0 -240.88)"/>
    <path id="패스_2837" data-name="패스 2837" d="M115.436,243.819H20.885a1.111,1.111,0,0,1-1.111-1.111V224.331a2.184,2.184,0,0,1,2.181-2.181h92.411a2.184,2.184,0,0,1,2.181,2.181v18.377a1.111,1.111,0,0,1-1.111,1.111M22,241.6h92.33V224.372H22Z" transform="translate(-15.381 -172.795)"/>
    <path id="패스_2838" data-name="패스 2838" d="M146.75,136.568H77.239a1.111,1.111,0,0,1-1.111-1.111V111.448a2.184,2.184,0,0,1,2.181-2.181h67.37a2.184,2.184,0,0,1,2.181,2.181v24.008a1.111,1.111,0,0,1-1.111,1.111m-68.4-2.222h67.29V111.489H78.35Z" transform="translate(-59.215 -84.991)"/>
    <path id="패스_2839" data-name="패스 2839" d="M120.106,252.957H29.289a1.111,1.111,0,1,1,0-2.222h90.818a1.111,1.111,0,0,1,0,2.222" transform="translate(-21.918 -195.029)"/>
    <path id="패스_2840" data-name="패스 2840" d="M135.164,168.34a24.888,24.888,0,0,1-6.025-.643,26.352,26.352,0,0,0-11.122,0,28.553,28.553,0,0,1-12.049,0,26.349,26.349,0,0,0-11.121,0,28.551,28.551,0,0,1-12.048,0,22.71,22.71,0,0,0-5.56-.593,1.111,1.111,0,1,1,0-2.222,24.883,24.883,0,0,1,6.024.643,26.338,26.338,0,0,0,11.121,0,28.563,28.563,0,0,1,12.049,0,26.34,26.34,0,0,0,11.121,0,28.566,28.566,0,0,1,12.049,0,26.347,26.347,0,0,0,11.123,0,24.888,24.888,0,0,1,6.025-.643,1.111,1.111,0,1,1,0,2.222,22.713,22.713,0,0,0-5.561.593,24.887,24.887,0,0,1-6.025.643" transform="translate(-59.215 -128.25)"/>
    <path id="패스_2841" data-name="패스 2841" d="M126.775,67.886h-5.93a1.111,1.111,0,0,1-1.111-1.111V54.321a1.111,1.111,0,0,1,1.111-1.111h5.931a1.111,1.111,0,0,1,1.111,1.111V66.775a1.111,1.111,0,0,1-1.111,1.111m-4.82-2.222h3.709V55.432h-3.709Z" transform="translate(-93.133 -41.388)"/>
    <path id="패스_2842" data-name="패스 2842" d="M117.638,14.043h0A5.839,5.839,0,0,1,111.8,8.2c0-1.365.855-3.075,2.615-5.229A31.7,31.7,0,0,1,116.873.3,1.11,1.11,0,0,1,118.4.3c.847.8,5.075,4.959,5.075,7.9h0a5.839,5.839,0,0,1-5.839,5.839m0-11.366c-1.7,1.766-3.618,4.254-3.618,5.526a3.617,3.617,0,0,0,3.618,3.618h0A3.617,3.617,0,0,0,121.255,8.2c0-1.275-1.921-3.762-3.617-5.526" transform="translate(-86.96 0.001)"/>
    <path id="패스_2843" data-name="패스 2843" d="M193.1,67.887h-5.93a1.111,1.111,0,0,1-1.111-1.111V54.322a1.111,1.111,0,0,1,1.111-1.111h5.93a1.111,1.111,0,0,1,1.111,1.111V66.776a1.111,1.111,0,0,1-1.111,1.111m-4.82-2.222h3.709V55.433H188.28Z" transform="translate(-144.721 -41.389)"/>
    <path id="패스_2844" data-name="패스 2844" d="M183.959,14.043A5.839,5.839,0,0,1,178.12,8.2c0-1.365.855-3.075,2.615-5.229A31.707,31.707,0,0,1,183.2.3a1.111,1.111,0,0,1,1.528,0c.847.8,5.075,4.959,5.075,7.9h0a5.839,5.839,0,0,1-5.839,5.839Zm0-11.366c-1.7,1.766-3.618,4.255-3.618,5.526a3.618,3.618,0,1,0,7.235,0c0-1.275-1.921-3.762-3.617-5.526" transform="translate(-138.547 0)"/>
    <path id="패스_2845" data-name="패스 2845" d="M253.491,67.887a1.111,1.111,0,0,1-1.111-1.111V54.322a1.111,1.111,0,0,1,1.111-1.111h5.93a1.111,1.111,0,0,1,1.111,1.111V66.776a1.111,1.111,0,0,1-1.111,1.111ZM254.6,55.433V65.665h3.709V55.433Z" transform="translate(-196.309 -41.389)"/>
    <path id="패스_2846" data-name="패스 2846" d="M250.283,14.043a5.839,5.839,0,0,1-5.84-5.84c0-1.365.855-3.075,2.615-5.229A31.68,31.68,0,0,1,249.518.3a1.11,1.11,0,0,1,1.528,0c.848.8,5.075,4.959,5.075,7.9a5.846,5.846,0,0,1-5.84,5.839m0-11.365c-1.7,1.766-3.618,4.254-3.618,5.526a3.618,3.618,0,1,0,7.236,0c0-1.272-1.921-3.76-3.618-5.526" transform="translate(-190.135 0.001)"/>
    <path id="패스_2847" data-name="패스 2847" d="M325.744,67.886h-5.93a1.111,1.111,0,0,1-1.111-1.111V54.321a1.111,1.111,0,0,1,1.111-1.111h5.93a1.111,1.111,0,0,1,1.111,1.111V66.775a1.111,1.111,0,0,1-1.111,1.111m-4.82-2.222h3.709V55.432h-3.709Z" transform="translate(-247.897 -41.388)"/>
    <path id="패스_2848" data-name="패스 2848" d="M316.6,14.043A5.846,5.846,0,0,1,310.765,8.2c0-1.365.855-3.075,2.615-5.229A31.708,31.708,0,0,1,315.84.3a1.111,1.111,0,0,1,1.528,0c.847.8,5.075,4.959,5.075,7.9a5.846,5.846,0,0,1-5.84,5.84m0-11.366c-1.7,1.766-3.618,4.255-3.618,5.526a3.618,3.618,0,0,0,7.236,0c0-1.274-1.921-3.762-3.617-5.526" transform="translate(-241.722 0)"/>
    <path id="패스_2849" data-name="패스 2849" d="M41.034,346.768a.555.555,0,0,1-.278-1.036l3.325-1.92a.555.555,0,0,1,.555.962l-3.325,1.92a.553.553,0,0,1-.277.074" transform="translate(-31.485 -267.368)"/>
    <path id="패스_2850" data-name="패스 2850" d="M87.077,346.768a.555.555,0,0,1-.278-1.036l3.326-1.92a.555.555,0,0,1,.555.962l-3.326,1.92a.552.552,0,0,1-.277.074" transform="translate(-67.299 -267.368)"/>
    <path id="패스_2851" data-name="패스 2851" d="M133.12,346.767a.555.555,0,0,1-.278-1.036l3.326-1.92a.555.555,0,1,1,.555.962l-3.326,1.92a.552.552,0,0,1-.277.074" transform="translate(-103.112 -267.368)"/>
    <path id="패스_2852" data-name="패스 2852" d="M179.163,346.767a.555.555,0,0,1-.278-1.036l3.326-1.92a.555.555,0,1,1,.555.962l-3.326,1.92a.552.552,0,0,1-.277.074" transform="translate(-138.926 -267.368)"/>
    <path id="패스_2853" data-name="패스 2853" d="M225.206,346.767a.555.555,0,0,1-.278-1.036l3.325-1.92a.555.555,0,1,1,.555.962l-3.325,1.92a.551.551,0,0,1-.277.074" transform="translate(-174.74 -267.368)"/>
    <path id="패스_2854" data-name="패스 2854" d="M271.249,346.767a.555.555,0,0,1-.278-1.036l3.326-1.92a.555.555,0,0,1,.555.962l-3.326,1.92a.552.552,0,0,1-.277.074" transform="translate(-210.553 -267.368)"/>
    <path id="패스_2855" data-name="패스 2855" d="M317.292,346.767a.555.555,0,0,1-.278-1.036l3.326-1.92a.555.555,0,0,1,.555.962l-3.326,1.92a.552.552,0,0,1-.277.074" transform="translate(-246.367 -267.368)"/>
    <path id="패스_2856" data-name="패스 2856" d="M363.335,346.767a.555.555,0,0,1-.278-1.036l3.325-1.92a.555.555,0,1,1,.555.962l-3.325,1.92a.552.552,0,0,1-.277.074" transform="translate(-282.181 -267.368)"/>
    <path id="패스_2857" data-name="패스 2857" d="M409.378,346.767a.555.555,0,0,1-.278-1.036l3.326-1.92a.555.555,0,1,1,.555.962l-3.326,1.92a.552.552,0,0,1-.277.074" transform="translate(-317.994 -267.368)"/>
    <path id="패스_2858" data-name="패스 2858" d="M448.413,346.767a.555.555,0,0,1-.278-1.036l3.325-1.92a.555.555,0,0,1,.555.962l-3.325,1.92a.552.552,0,0,1-.277.074" transform="translate(-348.357 -267.368)"/>
    <path id="패스_2859" data-name="패스 2859" d="M55.84,372.415a.555.555,0,0,1-.278-1.036l3.326-1.92a.555.555,0,1,1,.555.962l-3.326,1.92a.552.552,0,0,1-.277.074" transform="translate(-43.002 -287.317)"/>
    <path id="패스_2860" data-name="패스 2860" d="M7.86,372.415a.555.555,0,0,1-.278-1.036l3.326-1.92a.555.555,0,1,1,.555.962l-3.326,1.92a.552.552,0,0,1-.277.074" transform="translate(-5.681 -287.317)"/>
    <path id="패스_2861" data-name="패스 2861" d="M101.884,372.415a.555.555,0,0,1-.278-1.036l3.326-1.92a.555.555,0,1,1,.555.962l-3.326,1.92a.552.552,0,0,1-.277.074" transform="translate(-78.816 -287.317)"/>
    <path id="패스_2862" data-name="패스 2862" d="M147.927,372.414a.555.555,0,0,1-.278-1.036l3.326-1.92a.555.555,0,1,1,.555.962l-3.326,1.92a.552.552,0,0,1-.277.074" transform="translate(-114.63 -287.317)"/>
    <path id="패스_2863" data-name="패스 2863" d="M193.97,372.415a.555.555,0,0,1-.278-1.036l3.326-1.92a.555.555,0,0,1,.555.962l-3.326,1.92a.552.552,0,0,1-.277.074" transform="translate(-150.443 -287.317)"/>
    <path id="패스_2864" data-name="패스 2864" d="M240.013,372.415a.555.555,0,0,1-.278-1.036l3.326-1.92a.555.555,0,0,1,.555.962l-3.326,1.92a.552.552,0,0,1-.277.074" transform="translate(-186.257 -287.317)"/>
    <path id="패스_2865" data-name="패스 2865" d="M286.056,372.415a.555.555,0,0,1-.278-1.036l3.326-1.92a.555.555,0,1,1,.555.962l-3.326,1.92a.552.552,0,0,1-.277.074" transform="translate(-222.071 -287.317)"/>
    <path id="패스_2866" data-name="패스 2866" d="M332.1,372.415a.555.555,0,0,1-.278-1.036l3.326-1.92a.555.555,0,1,1,.555.962l-3.326,1.92a.552.552,0,0,1-.277.074" transform="translate(-257.883 -287.317)"/>
    <path id="패스_2867" data-name="패스 2867" d="M378.142,372.415a.555.555,0,0,1-.278-1.036l3.326-1.92a.555.555,0,0,1,.555.962l-3.326,1.92a.552.552,0,0,1-.277.074" transform="translate(-293.698 -287.317)"/>
    <path id="패스_2868" data-name="패스 2868" d="M416.863,372.414a.555.555,0,0,1-.278-1.036l3.325-1.92a.555.555,0,1,1,.555.962l-3.325,1.92a.552.552,0,0,1-.277.074" transform="translate(-323.816 -287.317)"/>
    <path id="패스_2869" data-name="패스 2869" d="M81.013,196.43a.555.555,0,0,1-.278-1.036l3.474-2.006a.555.555,0,1,1,.555.962l-3.474,2.006a.552.552,0,0,1-.277.074" transform="translate(-62.582 -150.364)"/>
    <path id="패스_2870" data-name="패스 2870" d="M129.106,196.43a.555.555,0,0,1-.278-1.036l3.474-2.006a.555.555,0,0,1,.555.962l-3.474,2.006a.552.552,0,0,1-.277.074" transform="translate(-99.99 -150.364)"/>
    <path id="패스_2871" data-name="패스 2871" d="M177.2,196.43a.555.555,0,0,1-.278-1.036l3.474-2.006a.555.555,0,0,1,.555.962l-3.474,2.006a.553.553,0,0,1-.277.074" transform="translate(-137.399 -150.364)"/>
    <path id="패스_2872" data-name="패스 2872" d="M225.294,196.43a.555.555,0,0,1-.278-1.036l3.474-2.006a.555.555,0,0,1,.555.962l-3.474,2.006a.552.552,0,0,1-.277.074" transform="translate(-174.808 -150.364)"/>
    <path id="패스_2873" data-name="패스 2873" d="M273.388,196.43a.556.556,0,0,1-.278-1.036l3.474-2.006a.555.555,0,1,1,.555.962l-3.474,2.006a.55.55,0,0,1-.277.074" transform="translate(-212.217 -150.364)"/>
    <path id="패스_2874" data-name="패스 2874" d="M321.482,196.431a.555.555,0,0,1-.278-1.036l3.474-2.006a.555.555,0,0,1,.555.962l-3.474,2.006a.552.552,0,0,1-.277.074" transform="translate(-249.626 -150.365)"/>
    <path id="패스_2875" data-name="패스 2875" d="M369.575,196.43a.555.555,0,0,1-.278-1.036l3.474-2.006a.555.555,0,0,1,.555.962l-3.474,2.006a.552.552,0,0,1-.277.074" transform="translate(-287.034 -150.364)"/>
    <path id="패스_2876" data-name="패스 2876" d="M327.671,307.642v12.606H314.312V307.642Z" transform="translate(-244.481 -239.293)" fill="#fff"/>
    <path id="패스_2877" data-name="패스 2877" d="M323.781,317.47H310.422a1.111,1.111,0,0,1-1.111-1.111V303.753a1.111,1.111,0,0,1,1.111-1.111h13.359a1.111,1.111,0,0,1,1.111,1.111v12.606a1.111,1.111,0,0,1-1.111,1.111m-12.248-2.222H322.67V304.864H311.533Z" transform="translate(-240.591 -235.404)"/>
    <path id="패스_2878" data-name="패스 2878" d="M187.012,241.546l-15.66-27.117h76.885L232.46,241.546H216.472v-6.408H203.113v6.408Z" transform="translate(-133.282 -166.789)" fill="#fff"/>
    <path id="패스_2879" data-name="패스 2879" d="M228.572,238.767H212.584a1.111,1.111,0,0,1-1.111-1.111v-5.3H200.335v5.3a1.111,1.111,0,0,1-1.111,1.111h-16.1a1.111,1.111,0,0,1-.962-.555L166.5,211.094a1.111,1.111,0,0,1,.962-1.666h76.885a1.111,1.111,0,0,1,.96,1.67l-15.776,27.117a1.111,1.111,0,0,1-.96.552m-14.877-2.222h14.238l14.484-24.9H169.387l14.377,24.9h14.349v-5.3a1.111,1.111,0,0,1,1.111-1.111h13.359a1.111,1.111,0,0,1,1.111,1.111Z" transform="translate(-129.394 -162.899)"/>
    <path id="패스_2880" data-name="패스 2880" d="M171.351,269.3V214.428l15.66,27.117h16.1v6.2h13.359v-6.2H232.46l15.776-27.117V269.3Z" transform="translate(-133.282 -166.788)" fill="#fff"/>
    <path id="패스_2881" data-name="패스 2881" d="M244.347,266.521H167.462a1.111,1.111,0,0,1-1.111-1.111V210.538a1.111,1.111,0,0,1,2.073-.556l15.34,26.562h15.46a1.111,1.111,0,0,1,1.111,1.111v5.087h11.137v-5.087a1.111,1.111,0,0,1,1.111-1.111h15.35l15.455-26.565a1.111,1.111,0,0,1,2.071.559v54.872a1.111,1.111,0,0,1-1.111,1.111M168.573,264.3h74.663V214.657l-13.705,23.558a1.11,1.11,0,0,1-.96.552H213.693v5.087a1.111,1.111,0,0,1-1.111,1.111H199.223a1.111,1.111,0,0,1-1.111-1.111v-5.087h-14.99a1.111,1.111,0,0,1-.962-.555l-13.588-23.528Z" transform="translate(-129.393 -162.899)"/>
    <path id="패스_2882" data-name="패스 2882" d="M233.048,214.428h15.189V269.3H171.352V214.428h62.282" transform="translate(-133.282 -166.789)" fill="#fff"/>
    <path id="패스_2883" data-name="패스 2883" d="M244.347,266.523H167.462a1.111,1.111,0,0,1-1.111-1.111V210.54a1.111,1.111,0,0,1,1.111-1.111h76.885a1.111,1.111,0,0,1,1.111,1.111v54.872a1.111,1.111,0,0,1-1.111,1.111M168.573,264.3h74.663V211.651H168.573Z" transform="translate(-129.393 -162.9)" fill="#d6513a" stroke="#d6513a" stroke-width="1"/>
    <path id="패스_2884" data-name="패스 2884" d="M374.442,241.546H390.43l15.776-27.117" transform="translate(-291.252 -166.789)" fill="#fff"/>
    <path id="패스_2885" data-name="패스 2885" d="M386.541,238.767H370.553a1.111,1.111,0,1,1,0-2.222H385.9l15.455-26.565a1.111,1.111,0,1,1,1.92,1.117L387.5,238.215a1.111,1.111,0,0,1-.96.552" transform="translate(-287.363 -162.899)" fill="#d6513a" stroke="#d6513a" stroke-width="1"/>
    <path id="패스_2886" data-name="패스 2886" d="M171.351,214.428l15.66,27.117h16.1" transform="translate(-133.282 -166.789)" fill="#fff"/>
    <path id="패스_2887" data-name="패스 2887" d="M199.223,238.766h-16.1a1.111,1.111,0,0,1-.962-.555L166.5,211.094a1.111,1.111,0,0,1,1.924-1.111l15.34,26.562h15.46a1.111,1.111,0,0,1,0,2.222" transform="translate(-129.392 -162.899)" fill="#d6513a" stroke="#d6513a" stroke-width="1"/>
    <path id="패스_2888" data-name="패스 2888" d="M314.311,314.051v-6.408h13.359v12.606H314.311Z" transform="translate(-244.481 -239.293)" fill="#fff"/>
    <path id="패스_2889" data-name="패스 2889" d="M323.781,317.47H310.422a1.111,1.111,0,0,1-1.111-1.111V303.753a1.111,1.111,0,0,1,1.111-1.111h13.359a1.111,1.111,0,0,1,1.111,1.111v12.606a1.111,1.111,0,0,1-1.111,1.111m-12.248-2.222H322.67V304.864H311.533Z" transform="translate(-240.591 -235.404)" fill="#d6513a" stroke="#d6513a" stroke-width="1"/>
    <line id="선_11" data-name="선 11" x2="5.57" transform="translate(47.099 94.6)" fill="#fff"/>
    <path id="패스_2890" data-name="패스 2890" d="M213.675,423.019H208.1a1.111,1.111,0,1,1,0-2.222h5.57a1.111,1.111,0,1,1,0,2.222" transform="translate(-161.006 -327.308)" fill="#d6513a"/>
    <line id="선_12" data-name="선 12" x2="5.569" transform="translate(64.851 94.6)" fill="#fff"/>
    <path id="패스_2891" data-name="패스 2891" d="M293.578,423.019h-5.569a1.111,1.111,0,0,1,0-2.222h5.569a1.111,1.111,0,0,1,0,2.222" transform="translate(-223.158 -327.308)" fill="#d6513a"/>
    <line id="선_13" data-name="선 13" x2="5.572" transform="translate(82.6 94.6)" fill="#fff"/>
    <path id="패스_2892" data-name="패스 2892" d="M373.472,423.019H367.9a1.111,1.111,0,1,1,0-2.222h5.572a1.111,1.111,0,0,1,0,2.222" transform="translate(-285.299 -327.308)" fill="#d6513a"/>
    <line id="선_14" data-name="선 14" x2="5.572" transform="translate(100.352 94.6)" fill="#fff"/>
    <path id="패스_2893" data-name="패스 2893" d="M453.372,423.019H447.8a1.111,1.111,0,0,1,0-2.222h5.572a1.111,1.111,0,0,1,0,2.222" transform="translate(-347.448 -327.308)" fill="#d6513a"/>
  </g>
</svg>
