<svg id="그룹_10736" data-name="그룹 10736" xmlns="http://www.w3.org/2000/svg" xmlns:xlink="http://www.w3.org/1999/xlink" width="129.762" height="90.57" viewBox="0 0 129.762 90.57">
  <defs>
    <clipPath id="clip-path">
      <rect id="사각형_1629" data-name="사각형 1629" width="129.762" height="90.57" fill="none"/>
    </clipPath>
  </defs>
  <g id="그룹_10735" data-name="그룹 10735" clip-path="url(#clip-path)">
    <path id="패스_2902" data-name="패스 2902" d="M245.22,112.184a6.575,6.575,0,1,1,6.577-6.575,6.582,6.582,0,0,1-6.577,6.575m0-11.017a4.442,4.442,0,1,0,4.443,4.442,4.445,4.445,0,0,0-4.443-4.442" transform="translate(-180.342 -74.837)" fill="#1c1c1b"/>
    <path id="패스_2903" data-name="패스 2903" d="M146.443,217.817c-12.949,0-26.376-3.682-39.906-10.947a1.066,1.066,0,0,1-.562-.939v-35.87a1.066,1.066,0,0,1,1.517-.966l37.47,17.438,38.769-18.046a1.064,1.064,0,0,1,1.432.553,1.215,1.215,0,0,1,.1.444v36.448a1.069,1.069,0,0,1-.528.921c-12.448,7.275-25.33,10.964-38.288,10.964m-38.335-12.525c13.026,6.9,25.92,10.393,38.335,10.393,12.392,0,24.73-3.487,36.683-10.367v-34.2l-37.715,17.556a1.054,1.054,0,0,1-.9,0l-36.4-16.941Z" transform="translate(-80.083 -127.247)" fill="#1c1c1b"/>
    <path id="패스_2904" data-name="패스 2904" d="M64.879,61.529a1.051,1.051,0,0,1-.45-.1L.617,31.739a1.066,1.066,0,0,1,0-1.934L64.429.1a1.052,1.052,0,0,1,.9,0l63.817,29.7a1.065,1.065,0,0,1,0,1.932L65.329,61.428a1.052,1.052,0,0,1-.45.1M3.594,30.771,64.879,59.287l61.289-28.516L64.879,2.243Zm61.284,6.575a6.575,6.575,0,1,1,6.577-6.575,6.582,6.582,0,0,1-6.577,6.575m0-11.017a4.442,4.442,0,1,0,4.443,4.442,4.445,4.445,0,0,0-4.443-4.442" transform="translate(0 0)" fill="#1c1c1b"/>
    <path id="패스_2905" data-name="패스 2905" d="M146.437,217.844c-13.058,0-26.387-3.626-39.9-10.881a1.066,1.066,0,0,1-.562-.939V170.154a1.067,1.067,0,1,1,2.134,0v35.23c26.3,13.933,50.853,13.941,75.018.026V169.576a1.067,1.067,0,0,1,2.134,0v36.448a1.068,1.068,0,0,1-.528.921c-12.43,7.264-25.227,10.9-38.295,10.9" transform="translate(-80.083 -127.339)" fill="#1c1c1b" stroke="#1c1c1b" stroke-width="1"/>
    <path id="패스_2906" data-name="패스 2906" d="M64.879,61.529a1.053,1.053,0,0,1-.45-.1L.616,31.738a1.066,1.066,0,0,1,0-1.934L64.428.1a1.054,1.054,0,0,1,.9,0l63.817,29.7a1.065,1.065,0,0,1,0,1.932L65.329,61.428a1.052,1.052,0,0,1-.45.1M3.594,30.771,64.879,59.286l61.289-28.516L64.879,2.242Z" transform="translate(0 0)" fill="#1c1c1b" stroke="#000" stroke-width="1"/>
    <path id="패스_2909" data-name="패스 2909" d="M134.915,295.059a1.11,1.11,0,0,1-.248-.029,94.69,94.69,0,0,1-22.825-8.89,1.066,1.066,0,0,1,1.012-1.877,92.423,92.423,0,0,0,22.306,8.691,1.067,1.067,0,0,1-.245,2.1" transform="translate(-84.094 -214.717)" fill="#1c1c1b"/>
    <path id="패스_2910" data-name="패스 2910" d="M238.523,328.13l-.035,0a59.742,59.742,0,0,1-7.341-.716,1.066,1.066,0,0,1,.333-2.1,57.971,57.971,0,0,0,7.078.69,1.066,1.066,0,0,1-.035,2.132" transform="translate(-173.994 -245.817)" fill="#1c1c1b"/>
    <path id="패스_2908" data-name="패스 2908" d="M245.22,112.184a6.575,6.575,0,1,1,6.577-6.575,6.582,6.582,0,0,1-6.577,6.575m0-11.017a4.442,4.442,0,1,0,4.443,4.442,4.445,4.445,0,0,0-4.443-4.442" transform="translate(-180.342 -74.837)" fill="#d6513a"/>
    <path id="패스_2907" data-name="패스 2907" d="M331.791,128.981a1,1,0,0,1-.12-.008L284.688,123.7a1.065,1.065,0,0,1,.237-2.118l46.983,5.268a1.066,1.066,0,0,1-.117,2.126" transform="translate(-214.417 -91.875)" fill="#d6513a"/>
    <path id="패스_2901" data-name="패스 2901" d="M442.758,310.629a1.067,1.067,0,0,1-.763-1.812l3.572-3.652a1.066,1.066,0,1,1,1.525,1.49l-3.572,3.652a1.06,1.06,0,0,1-.762.322" transform="translate(-333.779 -230.365)" fill="#d6513a"/>
    <path id="패스_2900" data-name="패스 2900" d="M501.078,310.049a1.064,1.064,0,0,1-.746-.306l-3.652-3.588a1.066,1.066,0,0,1,1.493-1.522l3.652,3.588a1.067,1.067,0,0,1-.746,1.828" transform="translate(-375.09 -229.976)" fill="#d6513a"/>
    <path id="패스_2899" data-name="패스 2899" d="M477.542,320.094a1.067,1.067,0,0,1-1.067-1.056l-.051-5.128a1.069,1.069,0,0,1,1.056-1.078h.011a1.067,1.067,0,0,1,1.067,1.056l.052,5.128a1.069,1.069,0,0,1-1.056,1.078Z" transform="translate(-360.025 -236.402)" fill="#d6513a"/>
    <path id="패스_2898" data-name="패스 2898" d="M465.134,278.246a5.087,5.087,0,1,1,5.086-5.087,5.093,5.093,0,0,1-5.086,5.087m0-8.04a2.953,2.953,0,1,0,2.952,2.952,2.956,2.956,0,0,0-2.952-2.952" transform="translate(-347.65 -202.578)" fill="#d6513a"/>
    <path id="패스_2897" data-name="패스 2897" d="M477.1,175.368a1.067,1.067,0,0,1-1.067-1.067V144.21a1.067,1.067,0,0,1,2.134,0V174.3a1.067,1.067,0,0,1-1.067,1.067" transform="translate(-359.733 -108.17)" fill="#d6513a"/>
  </g>
</svg>
