<svg xmlns="http://www.w3.org/2000/svg" width="108.127" height="84.898" viewBox="0 0 108.127 84.898">
  <g id="그룹_10748" data-name="그룹 10748" transform="translate(0)">
    <g id="그룹_10749" data-name="그룹 10749" transform="translate(0)">
      <path id="패스_2920" data-name="패스 2920" d="M108.418,88.529a39.147,39.147,0,1,1,39.148-39.146,39.191,39.191,0,0,1-39.148,39.146" transform="translate(-53.593 -7.919)" fill="#fff"/>
      <path id="패스_2921" data-name="패스 2921" d="M104.163,7.225a37.9,37.9,0,1,1-37.9,37.9,37.9,37.9,0,0,1,37.9-37.9m0-2.49A40.4,40.4,0,0,0,88.44,82.343,40.4,40.4,0,0,0,119.886,7.91a40.144,40.144,0,0,0-15.724-3.175" transform="translate(-49.338 -3.663)"/>
      <path id="패스_2922" data-name="패스 2922" d="M11.7,89.219a1.245,1.245,0,0,1-.532-.12A7.368,7.368,0,0,1,7.4,83.133a7.658,7.658,0,0,1-.028-1.659S9.967,43.409,9.967,43.4c.2-6.4-.07-7.654-.158-7.888L9.8,35.494c-1.075-2.73-2.771-3.414-3.1-3.524A1.7,1.7,0,0,1,5.5,30.2c.179-2.677,1.358-21.025,1.37-21.21A1.245,1.245,0,0,1,8.01,7.834l.314-.027c.036,0,.071,0,.107,0s.077,0,.116.005l.315.029a1.243,1.243,0,0,1,.862.47,1.243,1.243,0,0,1,.836-.444l.32-.032c.041,0,.081-.006.122-.006a1.284,1.284,0,0,1,.132.007l.318.034a1.242,1.242,0,0,1,.834.452,1.243,1.243,0,0,1,.808-.434l.319-.037a1.213,1.213,0,0,1,.143-.008,1.191,1.191,0,0,1,.148.009l.318.038a1.241,1.241,0,0,1,.825.459,1.243,1.243,0,0,1,.866-.457l.309-.025c.033,0,.067,0,.1,0s.075,0,.112.005l.313.028a1.245,1.245,0,0,1,1.131,1.178c.009.185.921,18.551,1.062,21.235a1.707,1.707,0,0,1-1.221,1.743c-.207.065-2.016.705-3.154,3.478l-.012.028c-.088.226-.374,1.476-.272,7.847,0,.007,2.034,38.083,2.034,38.083a7.41,7.41,0,0,1-3.79,7.564,1.245,1.245,0,0,1-.627.17" transform="translate(-4.255 -6.036)" fill="#fff"/>
      <path id="패스_2923" data-name="패스 2923" d="M4.176,4.792l.314.029.522,17.147s.017.272.273.273h0a.271.271,0,0,0,.267-.266L6.427,4.846l.32-.031.318.034.579,17.137s.01.274.254.277h0c.24,0,.249-.274.249-.274L8.981,4.866,9.3,4.829l.318.038.618,17.143a.266.266,0,0,0,.267.27h0a.276.276,0,0,0,.275-.269l.779-17.137.309-.025.313.028S13.1,23.4,13.241,26.116a.458.458,0,0,1-.358.492A6.881,6.881,0,0,0,8.958,30.8c-.358.815-.447,4.028-.375,8.434h0L10.62,77.368a6.2,6.2,0,0,1-3.178,6.351,6.134,6.134,0,0,1-3.06-4.979,6.445,6.445,0,0,1-.024-1.419l2.6-38.073h0c.138-4.418.1-7.643-.25-8.466a6.888,6.888,0,0,0-3.865-4.249.453.453,0,0,1-.348-.5C2.673,23.322,3.862,4.819,3.862,4.819Zm0-2.49c-.072,0-.143,0-.215.009l-.314.027a2.49,2.49,0,0,0-2.27,2.321c-.012.185-1.189,18.5-1.37,21.205A2.945,2.945,0,0,0,2.052,28.9c.059.019,1.415.493,2.321,2.762.063.281.273,1.684.1,7.425L1.876,77.118a8.921,8.921,0,0,0,.032,1.9,8.674,8.674,0,0,0,4.47,6.953,2.489,2.489,0,0,0,2.319-.1,8.7,8.7,0,0,0,4.4-8.77l-2.029-38v0c-.091-5.716.139-7.11.206-7.389.938-2.257,2.3-2.708,2.357-2.726A2.961,2.961,0,0,0,15.728,26v-.015C15.587,23.3,14.675,4.939,14.666,4.754A2.49,2.49,0,0,0,12.4,2.4l-.313-.028c-.074-.007-.149-.01-.223-.01s-.134,0-.2.008l-.309.025a2.492,2.492,0,0,0-.76.184,2.494,2.494,0,0,0-.682-.182L9.6,2.357a2.46,2.46,0,0,0-.3-.018,2.485,2.485,0,0,0-.287.017l-.319.037a2.485,2.485,0,0,0-.65.166,2.482,2.482,0,0,0-.717-.186l-.318-.034a2.53,2.53,0,0,0-.262-.014q-.122,0-.243.012l-.32.031a2.483,2.483,0,0,0-.7.172,2.483,2.483,0,0,0-.766-.2l-.314-.029c-.077-.007-.154-.011-.232-.011" transform="translate(0 -1.781)"/>
      <path id="패스_2924" data-name="패스 2924" d="M430,87.908a1.243,1.243,0,0,1-.543-.125,7.935,7.935,0,0,1-4.031-7.724l.951-36.042v0c-4.491-10.27-2.838-29.22.556-35.269,1.174-2.093,2.6-3.246,4.006-3.246a2.327,2.327,0,0,1,1.72.748,3.765,3.765,0,0,1,.808,2.9c-.05.721-.012,2.756.037,5.332.131,6.957.351,18.591-.51,29.614l1.61,35.969a7.923,7.923,0,0,1-3.972,7.671,1.246,1.246,0,0,1-.631.172" transform="translate(-327.757 -4.254)" fill="#fff"/>
      <path id="패스_2925" data-name="패스 2925" d="M426.7,2.49c.837,0,1.39.843,1.286,2.319-.189,2.717.73,19.63-.479,35.012l1.616,36.1a6.716,6.716,0,0,1-3.361,6.492,6.73,6.73,0,0,1-3.33-6.552l.957-36.268h0c-.024-.074-.05-.151-.081-.258-4.226-9.559-2.91-28.207.471-34.231,1.013-1.805,2.1-2.61,2.92-2.61m0-2.49c-2.535,0-4.278,2.432-5.092,3.882-1.887,3.363-3.16,9.69-3.4,16.924-.255,7.57.721,14.535,2.684,19.2l-.944,35.753a9.213,9.213,0,0,0,4.732,8.9,2.491,2.491,0,0,0,2.347-.094,9.1,9.1,0,0,0,4.319-5.646,9.206,9.206,0,0,0,.263-3.2L430,39.862c.859-11.06.64-22.694.508-29.657-.046-2.445-.086-4.556-.04-5.223a4.881,4.881,0,0,0-1.139-3.837A3.561,3.561,0,0,0,426.7,0" transform="translate(-323.523)"/>
      <path id="패스_2926" data-name="패스 2926" d="M175.818,129.759a6.742,6.742,0,0,1-5.455-2.943c-3.532-4.68-7.72-6.973-11.415-9-5.075-2.779-9.458-5.179-9.458-12.376a21.866,21.866,0,1,1,43.732,0c0,9.6-9.335,24.315-17.4,24.315" transform="translate(-115.656 -64.662)" fill="#fff"/>
      <path id="패스_2927" data-name="패스 2927" d="M167.1,80.568a20.622,20.622,0,0,1,20.621,20.621c0,9.248-9.075,23.07-16.16,23.07a5.467,5.467,0,0,1-4.462-2.449c-8.533-11.306-20.621-9.232-20.621-20.621A20.622,20.622,0,0,1,167.1,80.568m0-2.49a23.137,23.137,0,0,0-23.111,23.111,12.129,12.129,0,0,0,3.241,8.765,26.962,26.962,0,0,0,6.864,4.7c3.585,1.963,7.647,4.187,11.019,8.654a7.889,7.889,0,0,0,6.449,3.438c4.151,0,8.814-3.335,12.792-9.151,3.668-5.362,5.858-11.5,5.858-16.409A23.137,23.137,0,0,0,167.1,78.078" transform="translate(-111.401 -60.407)" fill="#d6513a"/>
      <path id="패스_2928" data-name="패스 2928" d="M238.79,155.842a10.17,10.17,0,1,1,10.169-10.169,10.181,10.181,0,0,1-10.169,10.169" transform="translate(-176.877 -104.835)" fill="#fff"/>
      <path id="패스_2929" data-name="패스 2929" d="M234.535,132.493a8.925,8.925,0,1,1-8.924,8.925,8.925,8.925,0,0,1,8.924-8.925m0-2.49a11.414,11.414,0,1,0,11.414,11.415A11.427,11.427,0,0,0,234.535,130" transform="translate(-172.622 -100.579)" fill="#d6513a"/>
    </g>
  </g>
</svg>
