<svg id="그룹_10721" data-name="그룹 10721" xmlns="http://www.w3.org/2000/svg" width="129.488" height="106.458" viewBox="0 0 129.488 106.458">
  <g id="그룹_10742" data-name="그룹 10742">
    <path id="패스_2790" data-name="패스 2790" d="M209.775,5.788h-4.887V2.9A2.9,2.9,0,0,0,202,0h-4.306a2.9,2.9,0,0,0-2.9,2.9V5.788h-9.921V2.9a2.9,2.9,0,0,0-2.9-2.9h-4.305a2.9,2.9,0,0,0-2.9,2.9V5.788h-9.92V2.9A2.9,2.9,0,0,0,161.964,0h-4.312a2.894,2.894,0,0,0-2.884,2.9V5.788h-9.926V2.9a2.9,2.9,0,0,0-2.9-2.9h-4.305a2.9,2.9,0,0,0-2.9,2.9V5.788h-9.926V2.9A2.9,2.9,0,0,0,121.933,0h-4.305a2.9,2.9,0,0,0-2.9,2.9V5.788h-4.876a3.977,3.977,0,0,0-3.974,3.971v68.8a3.977,3.977,0,0,0,3.974,3.972h90.607a1.509,1.509,0,0,0,1.2-.592,1.44,1.44,0,0,0,.116-.107L213.3,69.9l.017-.017a.81.81,0,0,0,.071-.083,1.411,1.411,0,0,0,.11-.144,1.133,1.133,0,0,0,.063-.111l.014-.026a1.223,1.223,0,0,0,.06-.124,1.52,1.52,0,0,0,.053-.163,1.113,1.113,0,0,0,.031-.12,1.4,1.4,0,0,0,.021-.182.872.872,0,0,0,.007-.119V9.759a3.974,3.974,0,0,0-3.968-3.971M208.656,70.34l-6.682,6.92V70.34Zm-90.9-67.307h4.03v8.532h-4.03Zm-8.85,21.112h101.8V67.307H200.458a1.517,1.517,0,0,0-1.515,1.516V79.5H109.851a.942.942,0,0,1-.943-.939Zm0-1.753V9.759a.942.942,0,0,1,.943-.939h4.876V11.7a2.9,2.9,0,0,0,2.9,2.894h4.305a2.893,2.893,0,0,0,2.886-2.894V8.82h9.926V11.7a2.9,2.9,0,0,0,2.9,2.894h4.305a2.9,2.9,0,0,0,2.9-2.894V8.82h9.926V11.7a2.892,2.892,0,0,0,2.884,2.894h4.312a2.9,2.9,0,0,0,2.894-2.894V8.82h9.92V11.7a2.9,2.9,0,0,0,2.9,2.894h4.305a2.9,2.9,0,0,0,2.9-2.894V8.82H194.8V11.7a2.9,2.9,0,0,0,2.9,2.894H202a2.9,2.9,0,0,0,2.89-2.894V8.82h4.887a.939.939,0,0,1,.937.939V22.392ZM197.827,3.033h4.03v8.532h-4.03Zm-20.018,0h4.035v8.532h-4.035Zm-20.01,0h4.028v8.532H157.8Zm-20.023,0h4.034v8.532h-4.034Z" transform="translate(-84.255 0)"/>
    <path id="패스_2791" data-name="패스 2791" d="M157.5,189.608h18.432a.876.876,0,0,0,0-1.753H157.5a.876.876,0,0,0,0,1.753" transform="translate(-124.642 -149.492)"/>
    <path id="패스_2792" data-name="패스 2792" d="M321.446,189.608h18.428a.876.876,0,0,0,0-1.753H321.446a.876.876,0,0,0,0,1.753" transform="translate(-255.105 -149.492)"/>
    <path id="패스_2793" data-name="패스 2793" d="M485.395,189.608h18.427a.876.876,0,0,0,0-1.753H485.395a.876.876,0,0,0,0,1.753" transform="translate(-385.574 -149.492)"/>
    <path id="패스_2794" data-name="패스 2794" d="M157.5,252.807h18.432a.876.876,0,0,0,0-1.753H157.5a.876.876,0,0,0,0,1.753" transform="translate(-124.642 -199.785)"/>
    <path id="패스_2795" data-name="패스 2795" d="M321.446,252.807h18.428a.876.876,0,0,0,0-1.753H321.446a.876.876,0,0,0,0,1.753" transform="translate(-255.105 -199.785)"/>
    <path id="패스_2796" data-name="패스 2796" d="M485.395,252.807h18.427a.876.876,0,0,0,0-1.753H485.395a.876.876,0,0,0,0,1.753" transform="translate(-385.574 -199.785)"/>
    <path id="패스_2797" data-name="패스 2797" d="M157.5,315.942h18.432a.876.876,0,0,0,0-1.753H157.5a.876.876,0,0,0,0,1.753" transform="translate(-124.642 -250.027)"/>
    <path id="패스_2798" data-name="패스 2798" d="M321.446,315.942h18.428a.876.876,0,0,0,0-1.753H321.446a.876.876,0,0,0,0,1.753" transform="translate(-255.105 -250.027)"/>
    <path id="패스_2799" data-name="패스 2799" d="M485.395,315.942h18.427a.876.876,0,0,0,0-1.753H485.395a.876.876,0,0,0,0,1.753" transform="translate(-385.574 -250.027)"/>
    <path id="패스_2800" data-name="패스 2800" d="M207.614,408.862l-.506-.246a5.133,5.133,0,0,0-4.127-.106,5.006,5.006,0,0,0-2.832,2.993l-.116.322,7.5,15.48,3.276-4.742a1.373,1.373,0,0,1,1.17-.569l5.748.378-6.18-12.77a7.7,7.7,0,0,1-3.929-.74" transform="translate(-159.184 -324.783)" fill="#fff"/>
    <path id="패스_2801" data-name="패스 2801" d="M47.2,421.972a1.358,1.358,0,0,1,1.174.569l3.276,4.742,7.5-15.489-.113-.313a5.019,5.019,0,0,0-2.839-2.993,5.073,5.073,0,0,0-4.127.106l-.5.246a7.7,7.7,0,0,1-3.929.74l-6.184,12.77Z" transform="translate(-32.989 -324.761)" fill="#fff"/>
    <path id="패스_2802" data-name="패스 2802" d="M27.709,190.848l.506-.239a7.692,7.692,0,0,1,3.313-.748A7.7,7.7,0,0,1,38.8,195l.195.528a5.076,5.076,0,0,0,9.559,0l.191-.528a7.7,7.7,0,0,1,10.579-4.387l.5.239a4.922,4.922,0,0,0,3.231.411l.058-.013a5.226,5.226,0,0,0,2.477-1.386,4.985,4.985,0,0,0,1-5.773l-.252-.514A7.725,7.725,0,0,1,70.725,173l.536-.183a5.075,5.075,0,0,0,0-9.563l-.536-.191a7.726,7.726,0,0,1-4.386-10.586l.252-.5a5.075,5.075,0,0,0-6.767-6.76l-.51.238a7.7,7.7,0,0,1-10.571-4.38l-.191-.528a5.072,5.072,0,0,0-9.559,0l-.195.528a7.712,7.712,0,0,1-10.583,4.38l-.506-.238a5.072,5.072,0,0,0-6.76,6.76l.238.5a7.719,7.719,0,0,1-4.376,10.586l-.528.191a5.069,5.069,0,0,0,0,9.563l.528.183a7.723,7.723,0,0,1,4.376,10.583l-.246.506a4.979,4.979,0,0,0,1.005,5.773,5.225,5.225,0,0,0,2.4,1.367,1.337,1.337,0,0,1,.176.04,4.916,4.916,0,0,0,3.186-.42m-6.023-22.82A22.08,22.08,0,1,1,43.768,190.11a22.1,22.1,0,0,1-22.083-22.082" transform="translate(-10.263 -109.156)" fill="#fff"/>
    <path id="패스_2803" data-name="패스 2803" d="M68.967,401.89q.087.022.176.04a1.371,1.371,0,0,0-.176-.04" transform="translate(-54.883 -319.819)"/>
    <path id="패스_2806" data-name="패스 2806" d="M258.57,401.981l-.058.013.058-.013" transform="translate(-205.72 -319.891)"/>
    <g id="그룹_10743" data-name="그룹 10743" transform="translate(0 25.37)">
      <path id="패스_2804" data-name="패스 2804" d="M45.531,414.895l-7.5,15.489-3.276-4.743a1.358,1.358,0,0,0-1.173-.569l-5.748.378,6.184-12.77a7.551,7.551,0,0,1-2.6-.683l-6.945,14.341a1.329,1.329,0,0,0,.084,1.317,1.368,1.368,0,0,0,1.188.58l7.263-.473,4.134,5.983a1.308,1.308,0,0,0,1.085.575c.037,0,.062-.007.107-.007a1.292,1.292,0,0,0,1.079-.741l7.7-15.894a7.792,7.792,0,0,1-1.5-2.567Z" transform="translate(-19.37 -353.232)" fill="#d6513a"/>
      <path id="패스_2805" data-name="패스 2805" d="M211.545,425.445l-5.748-.378a1.374,1.374,0,0,0-1.17.569l-3.276,4.743-7.5-15.48-.075.206a7.833,7.833,0,0,1-1.511,2.569l7.7,15.893a1.34,1.34,0,0,0,1.185.748,1.32,1.32,0,0,0,1.089-.575l4.138-5.983,7.259.473a1.327,1.327,0,0,0,1.276-1.9l-6.946-14.342a7.554,7.554,0,0,1-2.6.685Z" transform="translate(-153.005 -353.227)" fill="#d6513a"/>
      <path id="패스_2807" data-name="패스 2807" d="M94.406,400.4a1.328,1.328,0,0,1,1.761.612l.25.517.116-.322a5.007,5.007,0,0,1,2.832-2.993,5.131,5.131,0,0,1,4.127.106l.506.246a7.694,7.694,0,0,0,3.929.74l-.418-.865a1.331,1.331,0,0,1,.612-1.768,1.372,1.372,0,0,1,.238-.084,4.922,4.922,0,0,1-3.231-.411l-.5-.239a7.7,7.7,0,0,0-10.579,4.387l-.191.528a5.076,5.076,0,0,1-9.559,0l-.195-.528a7.7,7.7,0,0,0-7.27-5.136,7.693,7.693,0,0,0-3.313.748l-.506.239a4.917,4.917,0,0,1-3.186.42,1.3,1.3,0,0,1,.812,1.835l-.422.872a7.7,7.7,0,0,0,3.929-.74l.5-.246a5.073,5.073,0,0,1,4.127-.106,5.021,5.021,0,0,1,2.839,2.993l.113.313.246-.508a1.318,1.318,0,0,1,2.373,1.149l-1.037,2.141a7.746,7.746,0,0,0,11.521,0l-1.038-2.143a1.326,1.326,0,0,1,.612-1.761" transform="translate(-55.568 -339.861)" fill="#d6513a"/>
      <path id="패스_2808" data-name="패스 2808" d="M61.878,150.473l-.528-.191a5.087,5.087,0,0,1-2.887-6.966l.246-.5A7.711,7.711,0,0,0,48.431,132.54l-.506.238a5.075,5.075,0,0,1-4.127.107,5.01,5.01,0,0,1-2.832-2.994l-.191-.528a7.715,7.715,0,0,0-14.537,0l-.191.528a5.074,5.074,0,0,1-6.966,2.887l-.5-.238A7.707,7.707,0,0,0,8.3,142.814l.238.5a5.106,5.106,0,0,1,.1,4.127,5.008,5.008,0,0,1-2.986,2.839l-.528.191a7.715,7.715,0,0,0,0,14.537l.528.183a5.01,5.01,0,0,1,2.986,2.84,5.1,5.1,0,0,1-.1,4.127l-.238.5a7.623,7.623,0,0,0,1.507,8.767A7.87,7.87,0,0,0,12.051,183l.647-1.337a1.316,1.316,0,0,1,1.385-.727,5.229,5.229,0,0,1-2.4-1.367,4.979,4.979,0,0,1-1.005-5.773l.246-.506a7.69,7.69,0,0,0,.162-6.258,7.731,7.731,0,0,0-4.538-4.325l-.528-.183a5.069,5.069,0,0,1,0-9.563l.528-.191a7.719,7.719,0,0,0,4.376-10.586l-.238-.5a5.072,5.072,0,0,1,6.76-6.76l.506.238a7.712,7.712,0,0,0,10.583-4.38l.195-.528a5.072,5.072,0,0,1,9.56,0l.191.528a7.7,7.7,0,0,0,10.571,4.38l.51-.238a5.075,5.075,0,0,1,6.767,6.76l-.252.5a7.726,7.726,0,0,0,4.386,10.586l.536.191a5.075,5.075,0,0,1,0,9.563l-.536.183a7.725,7.725,0,0,0-4.386,10.575l.252.514a4.985,4.985,0,0,1-1,5.773,5.228,5.228,0,0,1-2.477,1.386,1.313,1.313,0,0,1,1.465.708L54.961,183a7.828,7.828,0,0,0,2.233-1.57,7.625,7.625,0,0,0,1.515-8.767l-.246-.5a5.088,5.088,0,0,1,2.887-6.966l.528-.183a7.715,7.715,0,0,0,0-14.537" transform="translate(0 -124.235)" fill="#d6513a"/>
      <path id="패스_2809" data-name="패스 2809" d="M130.112,420.2a1.321,1.321,0,0,0-1.761.612l-.246.508.078.215a7.8,7.8,0,0,0,1.5,2.567l1.037-2.141a1.315,1.315,0,0,0-.612-1.761" transform="translate(-101.944 -359.655)" fill="#d6513a"/>
      <path id="패스_2810" data-name="패스 2810" d="M62.035,403.708a1.3,1.3,0,0,0-.812-1.835c-.059-.012-.118-.026-.176-.04a1.316,1.316,0,0,0-1.385.727l-.647,1.337a7.557,7.557,0,0,0,2.6.684Z" transform="translate(-46.963 -345.132)" fill="#d6513a"/>
      <path id="패스_2811" data-name="패스 2811" d="M189.3,421.339l-.25-.517a1.318,1.318,0,1,0-2.373,1.149l1.038,2.143a7.837,7.837,0,0,0,1.511-2.569Z" transform="translate(-148.453 -359.667)" fill="#d6513a"/>
      <path id="패스_2812" data-name="패스 2812" d="M254.75,401.868l-.058.013a1.376,1.376,0,0,0-.238.084,1.331,1.331,0,0,0-.612,1.768l.418.865a7.555,7.555,0,0,0,2.6-.685l-.647-1.335a1.313,1.313,0,0,0-1.465-.709" transform="translate(-201.901 -345.149)" fill="#d6513a"/>
      <path id="패스_2813" data-name="패스 2813" d="M78.017,224.329a22.08,22.08,0,1,0-22.083-22.082,22.1,22.1,0,0,0,22.083,22.082m0-41.523a19.441,19.441,0,1,1-19.441,19.441,19.466,19.466,0,0,1,19.441-19.441" transform="translate(-44.512 -168.746)" fill="#d6513a"/>
    </g>
    <path id="패스_2814" data-name="패스 2814" d="M88.309,193.084a19.441,19.441,0,1,0,19.448,19.441,19.458,19.458,0,0,0-19.448-19.441" transform="translate(-54.804 -153.654)" fill="#fff"/>
    <path id="패스_2815" data-name="패스 2815" d="M126.3,242.945h-2.79v-5.977h2.79c2.267,0,4.152.393,4.152,2.988s-1.885,2.988-4.152,2.988m5.155,2.815c.975-.337,3.671-1.243,3.671-5.8s-3-6.234-8.3-6.234h-7.5a.48.48,0,0,0-.487.473V253.7a.48.48,0,0,0,.487.473h3.7a.48.48,0,0,0,.487-.473v-7.514h2.89l5.132,7.4a1.308,1.308,0,0,0,1.1.585h3.936a.378.378,0,0,0,.328-.582Z" transform="translate(-93.755 -185.077)" fill="#cf000e"/>
  </g>
</svg>
