<svg xmlns="http://www.w3.org/2000/svg" width="124.354" height="103.45" viewBox="0 0 124.354 103.45">
  <g id="그룹_10714" data-name="그룹 10714" transform="translate(0 -15.525)">
    <g id="그룹_10723" data-name="그룹 10723" transform="translate(0 15.525)">
      <rect id="사각형_1587" data-name="사각형 1587" width="2.509" height="36.668" transform="translate(30.6 49.657) rotate(-17.623)" fill="#d6513a"/>
      <rect id="사각형_1588" data-name="사각형 1588" width="2.509" height="36.668" transform="translate(26.985 50.807) rotate(-17.623)" fill="#d6513a"/>
      <path id="패스_2737" data-name="패스 2737" d="M27.108,621.4H80.3a1.255,1.255,0,0,0,0-2.509H27.108a1.255,1.255,0,0,0,0,2.509" transform="translate(-22.165 -535.549)" fill="#272525"/>
      <path id="패스_2738" data-name="패스 2738" d="M565.634,599.612a7.638,7.638,0,0,0,6.586-3.8,5.093,5.093,0,0,1,8.829,0,1.255,1.255,0,1,0,2.171-1.258,7.6,7.6,0,0,0-13.172,0,5.093,5.093,0,0,1-8.829,0,1.255,1.255,0,0,0-2.171,1.258,7.638,7.638,0,0,0,6.586,3.8" transform="translate(-479.16 -518.6)" fill="#272525"/>
      <path id="패스_2739" data-name="패스 2739" d="M411.394,599.612a7.638,7.638,0,0,0,6.586-3.8,5.093,5.093,0,0,1,8.829,0,1.255,1.255,0,1,0,2.171-1.258,7.6,7.6,0,0,0-13.172,0,5.093,5.093,0,0,1-8.829,0,1.255,1.255,0,0,0-2.171,1.258,7.637,7.637,0,0,0,6.586,3.8" transform="translate(-346.921 -511.414)" fill="#272525"/>
      <path id="패스_2740" data-name="패스 2740" d="M339.774,596.433a1.254,1.254,0,0,0,1.084-1.884,7.6,7.6,0,0,0-13.172,0,1.255,1.255,0,0,0,2.172,1.258,5.093,5.093,0,0,1,8.829,0,1.253,1.253,0,0,0,1.087.626" transform="translate(-280.801 -511.414)" fill="#272525"/>
      <path id="패스_2741" data-name="패스 2741" d="M454.025,4.986a1.253,1.253,0,0,0,1.087-.626,3.692,3.692,0,0,1,6.4,0,1.254,1.254,0,0,0,2.171,0,3.692,3.692,0,0,1,6.4,0A1.255,1.255,0,1,0,472.255,3.1,6.2,6.2,0,0,0,462.6,1.724,6.2,6.2,0,0,0,452.941,3.1a1.255,1.255,0,0,0,1.084,1.884" transform="translate(-395.713 0)" fill="#272525"/>
      <path id="패스_2742" data-name="패스 2742" d="M360.671,74.955a1.253,1.253,0,0,0,1.087-.626,3.691,3.691,0,0,1,6.4,0,1.254,1.254,0,0,0,2.171,0,3.691,3.691,0,0,1,6.4,0,1.255,1.255,0,0,0,2.171-1.258,6.2,6.2,0,0,0-9.657-1.379,6.195,6.195,0,0,0-9.657,1.379,1.254,1.254,0,0,0,1.084,1.884" transform="translate(-315.675 -59.988)" fill="#272525"/>
      <path id="패스_2743" data-name="패스 2743" d="M549.02,396.6H519.8A10.6,10.6,0,0,1,509.209,386V348.869a10.6,10.6,0,0,1,10.595-10.6H549.02a10.6,10.6,0,0,1,10.6,10.6V386a10.6,10.6,0,0,1-10.6,10.6" transform="translate(-436.576 -302.141)" fill="#fff"/>
      <path id="패스_2745" data-name="패스 2745" d="M555.073,758.587a5.574,5.574,0,0,1-5.567-5.568V750h2.554v3.022a3.014,3.014,0,1,0,6.028,0V750h2.554v3.022a5.574,5.574,0,0,1-5.568,5.568" transform="translate(-471.125 -655.137)" fill="#272525"/>
      <path id="패스_2746" data-name="패스 2746" d="M749.793,758.587a5.574,5.574,0,0,1-5.568-5.568V750h2.554v3.022a3.014,3.014,0,0,0,6.028,0V750h2.554v3.022a5.574,5.574,0,0,1-5.568,5.568" transform="translate(-638.069 -655.137)" fill="#272525"/>
      <rect id="사각형_1589" data-name="사각형 1589" width="2.554" height="24.692" transform="translate(86.414 10.96)" fill="#272525"/>
      <rect id="사각형_1590" data-name="사각형 1590" width="2.554" height="24.692" transform="translate(90.26 10.96)" fill="#272525"/>
      <rect id="사각형_1591" data-name="사각형 1591" width="2.554" height="24.692" transform="translate(102.859 10.96)" fill="#272525"/>
      <rect id="사각형_1592" data-name="사각형 1592" width="2.554" height="24.692" transform="translate(106.705 10.96)" fill="#272525"/>
      <path id="패스_2747" data-name="패스 2747" d="M614.648,114.2h-20.88a3.155,3.155,0,0,1-3.151-3.151v-2.968a3.155,3.155,0,0,1,3.151-3.151h20.88a3.155,3.155,0,0,1,3.151,3.151v2.968a3.155,3.155,0,0,1-3.151,3.151m-20.88-6.716a.6.6,0,0,0-.6.6v2.968a.6.6,0,0,0,.6.6h20.88a.6.6,0,0,0,.6-.6v-2.968a.6.6,0,0,0-.6-.6Z" transform="translate(-506.372 -102.083)" fill="#272525"/>
      <path id="패스_2748" data-name="패스 2748" d="M573.925,446.5a1.277,1.277,0,0,1-1.277-1.277V409.041a1.277,1.277,0,1,1,2.554,0v36.182a1.277,1.277,0,0,1-1.277,1.277" transform="translate(-490.966 -361.719)" fill="#d6513a"/>
      <path id="패스_2749" data-name="패스 2749" d="M678.224,446.5a1.277,1.277,0,0,1-1.277-1.277V409.041a1.277,1.277,0,1,1,2.553,0v36.182a1.277,1.277,0,0,1-1.277,1.277" transform="translate(-580.388 -361.719)" fill="#d6513a"/>
      <path id="패스_2750" data-name="패스 2750" d="M782.523,446.5a1.277,1.277,0,0,1-1.277-1.277V409.041a1.277,1.277,0,1,1,2.554,0v36.182a1.277,1.277,0,0,1-1.277,1.277" transform="translate(-669.809 -361.719)" fill="#d6513a"/>
      <path id="패스_2736" data-name="패스 2736" d="M135.291,206.3a4.16,4.16,0,1,0-3.969-2.9h0a4.17,4.17,0,0,0,3.969,2.9m0-5.813a1.661,1.661,0,1,1-.5.079,1.648,1.648,0,0,1,.5-.079" transform="translate(-112.421 -174.669)" fill="#d6513a"/>
      <rect id="사각형_1586" data-name="사각형 1586" width="45.909" height="2.509" transform="translate(4.562 45.656) rotate(-17.639)" fill="#d6513a"/>
      <rect id="사각형_1585" data-name="사각형 1585" width="55.477" height="2.509" transform="translate(1.599 52.126) rotate(-17.638)" fill="#d6513a"/>
      <path id="패스_2735" data-name="패스 2735" d="M1.254,263.12a1.262,1.262,0,0,0,.38-.059l57.343-18.233a1.254,1.254,0,0,0,.566-2.019A34.031,34.031,0,0,0,.006,261.74a1.254,1.254,0,0,0,1.248,1.38m55.082-20.085L2.755,260.072a31.522,31.522,0,0,1,53.58-17.036" transform="translate(0.001 -203.077)" fill="#d6513a"/>
      <path id="패스_2744" data-name="패스 2744" d="M543.333,389.593H509.678a9.68,9.68,0,0,1-9.691-9.647V337.79a9.68,9.68,0,0,1,9.691-9.647h33.655a9.68,9.68,0,0,1,9.691,9.647v42.155a9.68,9.68,0,0,1-9.691,9.647m-33.655-58.9a7.124,7.124,0,0,0-7.137,7.094v42.155a7.124,7.124,0,0,0,7.137,7.094h33.655a7.123,7.123,0,0,0,7.137-7.094V337.79a7.123,7.123,0,0,0-7.137-7.094Z" transform="translate(-428.669 -293.456)" fill="#272525"/>
    </g>
  </g>
</svg>
