<svg xmlns="http://www.w3.org/2000/svg" width="132.417" height="121.53" viewBox="0 0 132.417 121.53">
  <g id="그룹_10727" data-name="그룹 10727" transform="translate(0 0)">
    <rect id="사각형_1624" data-name="사각형 1624" width="101.869" height="62.454" transform="translate(1.498 25.272)" fill="#fff"/>
    <g id="그룹_10726" data-name="그룹 10726" transform="translate(0 0)">
      <g id="그룹_10728" data-name="그룹 10728">
        <path id="패스_2816" data-name="패스 2816" d="M103.368,176.927H1.5a1.5,1.5,0,0,1-1.5-1.5V112.974a1.5,1.5,0,0,1,1.5-1.5H103.368a1.5,1.5,0,0,1,1.5,1.5v62.454a1.5,1.5,0,0,1-1.5,1.5M3,173.93H101.87V114.472H3Z" transform="translate(0 -87.703)" fill="#282828"/>
        <path id="패스_2817" data-name="패스 2817" d="M240.339,177.019a1.5,1.5,0,0,1-1.5-1.5V113.136a1.5,1.5,0,1,1,3,0v62.385a1.5,1.5,0,0,1-1.5,1.5" transform="translate(-187.906 -87.831)" fill="#282828"/>
        <path id="패스_2818" data-name="패스 2818" d="M208.219,237.487a10.205,10.205,0,1,1,10.2-10.205,10.216,10.216,0,0,1-10.2,10.205m0-17.414a7.209,7.209,0,1,0,7.208,7.209,7.217,7.217,0,0,0-7.208-7.209" transform="translate(-155.786 -170.783)" fill="#282828"/>
        <rect id="사각형_1625" data-name="사각형 1625" width="5.415" height="38.924" transform="translate(97.953 37.036)" fill="#fff"/>
        <path id="패스_2819" data-name="패스 2819" d="M459.2,208.564H453.79a1.5,1.5,0,0,1-1.5-1.5V168.141a1.5,1.5,0,0,1,1.5-1.5H459.2a1.5,1.5,0,0,1,1.5,1.5v38.924a1.5,1.5,0,0,1-1.5,1.5m-3.917-3h2.42V169.639h-2.42Z" transform="translate(-355.837 -131.105)" fill="#282828"/>
        <path id="패스_2820" data-name="패스 2820" d="M170.909,35.1a17.041,17.041,0,1,1,24.021,1.942A17.041,17.041,0,0,1,170.909,35.1" transform="translate(-131.267 -5.527)" fill="#f7f7f7"/>
        <path id="패스_2821" data-name="패스 2821" d="M178.4,37.079a18.542,18.542,0,1,1,12-4.417,18.518,18.518,0,0,1-12,4.417M178.387,3a15.541,15.541,0,1,0,11.85,5.474A15.543,15.543,0,0,0,178.387,3" transform="translate(-125.772 -0.001)" fill="#282828"/>
        <path id="패스_2822" data-name="패스 2822" d="M256.212,10.31a13.243,13.243,0,0,0-7.939-2.951l-1.514.705a10.766,10.766,0,0,1,5.352,3.206,7.766,7.766,0,0,1,5.445.811,3.7,3.7,0,0,0-1.345-1.771" transform="translate(-194.136 -5.79)" fill="#282828"/>
        <path id="패스_2823" data-name="패스 2823" d="M170.922,98.084a10.545,10.545,0,0,0,3.863,5.842,6.129,6.129,0,0,0,4.656-.435c-.112-.216-.2-.449-.3-.672a18.012,18.012,0,0,1-1.439-5.641,16.937,16.937,0,0,1-5-3.359,6.976,6.976,0,0,0-1.652,3.115,5.6,5.6,0,0,0-.134,1.151" transform="translate(-134.472 -73.811)" fill="#282828"/>
        <path id="패스_2824" data-name="패스 2824" d="M237.707,45.515a29.014,29.014,0,0,0-7.612,1.826c-.067,2.061-.372,5.483.078,7.486a31,31,0,0,0,7.332,2.709,35.32,35.32,0,0,0,4.532-5.618,20.344,20.344,0,0,0-4.33-6.4" transform="translate(-180.897 -35.809)" fill="#282828"/>
        <path id="패스_2825" data-name="패스 2825" d="M255.663,135.309a13.254,13.254,0,0,1-1.622-.112,17.3,17.3,0,0,1-3.77-.852,11.877,11.877,0,0,1-3.054,2.57c-1,.639-1.949,1.153-2.426,1.4a5.248,5.248,0,0,0,1.951,2.809,11.35,11.35,0,0,0,7.04-2.1l-.005,0c.522-.471,1.968-2.234,1.887-3.712" transform="translate(-192.587 -105.696)" fill="#282828"/>
        <path id="패스_2826" data-name="패스 2826" d="M183.073,23.546a13.273,13.273,0,0,1,1.589-4.839,4.32,4.32,0,0,0-2.679-.216A11.146,11.146,0,0,0,176,24.985a6.17,6.17,0,0,0,1.747,2.7,12.534,12.534,0,0,1,5.33-4.135" transform="translate(-138.463 -14.462)" fill="#282828"/>
        <path id="패스_2827" data-name="패스 2827" d="M406.759,208.5c-7.855,0-14.246-9.359-14.246-20.863s6.391-20.863,14.246-20.863a1.5,1.5,0,0,1,1.5,1.5V207a1.5,1.5,0,0,1-1.5,1.5m-1.5-38.572c-5.5,1.167-9.752,8.663-9.752,17.709s4.254,16.542,9.752,17.709Z" transform="translate(-308.807 -131.205)" fill="#282828"/>
        <rect id="사각형_1626" data-name="사각형 1626" width="5.415" height="38.924" transform="translate(1.498 37.036)" fill="#fff"/>
        <path id="패스_2828" data-name="패스 2828" d="M6.914,208.564H1.5a1.5,1.5,0,0,1-1.5-1.5V168.141a1.5,1.5,0,0,1,1.5-1.5H6.914a1.5,1.5,0,0,1,1.5,1.5v38.924a1.5,1.5,0,0,1-1.5,1.5m-3.917-3H5.416V169.639H3Z" transform="translate(0 -131.105)" fill="#282828"/>
        <path id="패스_2829" data-name="패스 2829" d="M26.894,208.664a1.5,1.5,0,0,1-1.5-1.5v-38.9a1.5,1.5,0,0,1,1.5-1.5c7.855,0,14.246,9.359,14.246,20.863,0,11.6-6.39,21.031-14.246,21.031m1.5-38.74V205.5c5.421-1.216,9.752-8.9,9.752-17.867,0-9.045-4.254-16.542-9.752-17.709" transform="translate(-19.98 -131.205)" fill="#282828"/>
        <g id="그룹_10729" data-name="그룹 10729" transform="translate(52.628 42.354)">
          <path id="패스_2830" data-name="패스 2830" d="M102.353,371.783a2.846,2.846,0,0,1-1.09-.686l-3.329-3.363a2.837,2.837,0,0,1,4.028-4l.094.095c6.927-7.542,47.182-51.371,51.932-56.457,3.034-3.233,6.264-6.534,9.606-9.814l.011-.013c.056-.062.112-.124.172-.183.076-.076.16-.15.244-.224l.041-.036A6.059,6.059,0,0,1,170,295.946a5.977,5.977,0,0,1,2.319,1.46,6.072,6.072,0,0,1,.308,8.16c-.109.128-.228.263-.356.388-.072.072-.157.147-.244.222l-.009.008c-3.286,3.281-6.6,6.46-9.85,9.45-5.131,4.7-49.34,44.505-56.969,51.374l.092.092a2.838,2.838,0,0,1-2.939,4.682" transform="translate(-95.688 -294.192)" fill="#fff"/>
          <path id="패스_2831" data-name="패스 2831" d="M166.039,293.8a4.613,4.613,0,0,1,2,7.346c-.083.1-.172.2-.267.294-.074.073-.15.136-.227.2q-4.827,4.82-9.844,9.446c-5.647,5.17-58.073,52.368-58.073,52.368l1.151,1.155a1.411,1.411,0,1,1-2,1.986l-.421-.428-2.489-2.515-.419-.422a1.41,1.41,0,0,1,2-1.984L98.6,362.4s47.7-51.948,52.933-57.547q4.694-5,9.6-9.8c.052-.057.1-.116.156-.17.071-.071.146-.134.221-.2a4.615,4.615,0,0,1,4.533-.883m.93-2.7h0a7.487,7.487,0,0,0-7.336,1.429l-.043.038c-.078.067-.2.169-.324.3-.064.063-.132.137-.2.213-3.343,3.283-6.577,6.587-9.611,9.821-4.588,4.914-42.2,45.863-51.083,55.533a4.172,4.172,0,0,0-.528-.223,4.263,4.263,0,0,0-4.42,7.029l.423.427,2.484,2.51.419.425a4.3,4.3,0,0,0,1.643,1.034,4.267,4.267,0,0,0,5.216-5.918c9.776-8.8,51.075-45.992,56.024-50.524,3.258-3,6.573-6.179,9.861-9.46.075-.065.178-.156.29-.266.176-.174.32-.339.438-.478a7.506,7.506,0,0,0-.386-10.084,7.385,7.385,0,0,0-2.867-1.8" transform="translate(-92.192 -290.693)" fill="#d6513a"/>
        </g>
        <g id="그룹_10730" data-name="그룹 10730" transform="translate(62.001 66.704)">
          <path id="패스_2832" data-name="패스 2832" d="M118.609,386.2a7.976,7.976,0,1,1-7.976-7.977,7.977,7.977,0,0,1,7.976,7.977" transform="translate(-101.47 -377.034)" fill="#f7f7f7"/>
          <path id="패스_2833" data-name="패스 2833" d="M106.892,391.618a9.162,9.162,0,1,1,9.162-9.162,9.173,9.173,0,0,1-9.162,9.162m0-15.953a6.791,6.791,0,1,0,6.791,6.791,6.8,6.8,0,0,0-6.791-6.791" transform="translate(-97.73 -373.294)" fill="#282828"/>
          <path id="패스_2834" data-name="패스 2834" d="M145.375,395.894a1.18,1.18,0,0,1-.783-.3,9.162,9.162,0,0,1,0-13.762,1.186,1.186,0,1,1,1.566,1.78,6.791,6.791,0,0,0,0,10.2,1.186,1.186,0,0,1-.784,2.076" transform="translate(-130.949 -379.556)" fill="#282828"/>
          <path id="패스_2835" data-name="패스 2835" d="M113.358,395.183l-1.455-1.873a6.792,6.792,0,0,0-.181-10.87l1.392-1.92a9.164,9.164,0,0,1,.243,14.664" transform="translate(-108.355 -378.78)" fill="#282828"/>
        </g>
      </g>
    </g>
  </g>
</svg>
