<svg id="그룹_10716" data-name="그룹 10716" xmlns="http://www.w3.org/2000/svg" width="130.907" height="106.875" viewBox="0 0 130.907 106.875">
  <g id="그룹_10719" data-name="그룹 10719">
    <path id="패스_2751" data-name="패스 2751" d="M336.054,4.689H332.1V2.346A2.347,2.347,0,0,0,329.754,0h-3.488a2.349,2.349,0,0,0-2.346,2.346V4.689h-8.036V2.346A2.349,2.349,0,0,0,313.538,0H310.05A2.349,2.349,0,0,0,307.7,2.346V4.689h-8.036V2.346A2.348,2.348,0,0,0,297.323,0H293.83a2.344,2.344,0,0,0-2.336,2.346V4.689h-8.04V2.346A2.349,2.349,0,0,0,281.108,0H277.62a2.349,2.349,0,0,0-2.346,2.346V4.689h-8.041V2.346A2.345,2.345,0,0,0,264.9,0h-3.487a2.351,2.351,0,0,0-2.35,2.346V4.689h-3.95a3.222,3.222,0,0,0-3.219,3.217V63.637a3.222,3.222,0,0,0,3.219,3.217h73.4a1.222,1.222,0,0,0,.972-.48,1.111,1.111,0,0,0,.094-.087l9.335-9.666.013-.014a.7.7,0,0,0,.057-.067,1.164,1.164,0,0,0,.089-.116.931.931,0,0,0,.051-.09l.011-.021a1,1,0,0,0,.048-.1,1.165,1.165,0,0,0,.043-.132.859.859,0,0,0,.025-.1,1.148,1.148,0,0,0,.017-.148.711.711,0,0,0,.006-.1V7.906a3.219,3.219,0,0,0-3.214-3.217m-.906,52.292-5.413,5.606V56.98ZM261.514,2.457h3.264V9.368h-3.264Zm-7.169,17.1h82.469V54.524h-8.306a1.229,1.229,0,0,0-1.228,1.228V64.4H255.108a.763.763,0,0,1-.764-.761Zm0-1.42V7.906a.763.763,0,0,1,.764-.761h3.95V9.48a2.35,2.35,0,0,0,2.35,2.344H264.9a2.344,2.344,0,0,0,2.338-2.344V7.145h8.041V9.48a2.348,2.348,0,0,0,2.346,2.344h3.488a2.348,2.348,0,0,0,2.346-2.344V7.145h8.04V9.48a2.343,2.343,0,0,0,2.336,2.344h3.493a2.347,2.347,0,0,0,2.344-2.344V7.145H307.7V9.48a2.348,2.348,0,0,0,2.346,2.344h3.487a2.348,2.348,0,0,0,2.346-2.344V7.145h8.036V9.48a2.348,2.348,0,0,0,2.346,2.344h3.488A2.346,2.346,0,0,0,332.1,9.48V7.145h3.959a.761.761,0,0,1,.759.761V18.139ZM326.375,2.457h3.265V9.368h-3.265Zm-16.216,0h3.269V9.368h-3.269Zm-16.21,0h3.263V9.368H293.95Zm-16.22,0H281V9.368H277.73Z" transform="translate(-208.362)"/>
    <path id="패스_2752" data-name="패스 2752" d="M301.182,181.258h14.932a.71.71,0,0,0,0-1.42H301.182a.71.71,0,0,0,0,1.42" transform="translate(-248.55 -148.762)"/>
    <path id="패스_2753" data-name="패스 2753" d="M458.129,181.258h14.928a.71.71,0,0,0,0-1.42H458.129a.71.71,0,0,0,0,1.42" transform="translate(-378.377 -148.762)"/>
    <path id="패스_2754" data-name="패스 2754" d="M615.081,181.258h14.927a.71.71,0,0,0,0-1.42H615.081a.71.71,0,0,0,0,1.42" transform="translate(-508.207 -148.762)"/>
    <path id="패스_2755" data-name="패스 2755" d="M301.182,241.76h14.932a.71.71,0,0,0,0-1.42H301.182a.71.71,0,0,0,0,1.42" transform="translate(-248.55 -198.809)"/>
    <path id="패스_2756" data-name="패스 2756" d="M458.129,241.76h14.928a.71.71,0,0,0,0-1.42H458.129a.71.71,0,0,0,0,1.42" transform="translate(-378.377 -198.809)"/>
    <path id="패스_2757" data-name="패스 2757" d="M615.081,241.76h14.927a.71.71,0,0,0,0-1.42H615.081a.71.71,0,0,0,0,1.42" transform="translate(-508.207 -198.809)"/>
    <path id="패스_2758" data-name="패스 2758" d="M301.182,302.2h14.932a.71.71,0,0,0,0-1.42H301.182a.71.71,0,0,0,0,1.42" transform="translate(-248.55 -248.806)"/>
    <path id="패스_2759" data-name="패스 2759" d="M458.129,302.2h14.928a.71.71,0,0,0,0-1.42H458.129a.71.71,0,0,0,0,1.42" transform="translate(-378.377 -248.806)"/>
    <path id="패스_2760" data-name="패스 2760" d="M615.081,302.2h14.927a.71.71,0,0,0,0-1.42H615.081a.71.71,0,0,0,0,1.42" transform="translate(-508.207 -248.806)"/>
    <path id="패스_2761" data-name="패스 2761" d="M98.429,147.728A43.427,43.427,0,1,1,55,104.3a43.427,43.427,0,0,1,43.427,43.427" transform="translate(-9.575 -86.278)" fill="#fff"/>
    <path id="패스_2762" data-name="패스 2762" d="M258.943,142.867a.823.823,0,0,1-.823-.823V134.29a.823.823,0,1,1,1.647,0v7.754a.823.823,0,0,1-.823.823" transform="translate(-213.516 -110.404)"/>
    <path id="패스_2763" data-name="패스 2763" d="M341.8,170.082a.813.813,0,0,1-.41-.111.823.823,0,0,1-.3-1.124l3.877-6.7a.823.823,0,0,1,1.424.823l-3.877,6.7a.821.821,0,0,1-.714.412" transform="translate(-282.056 -133.784)"/>
    <path id="패스_2764" data-name="패스 2764" d="M405.6,246.172a.823.823,0,0,1-.413-1.536l6.715-3.876a.823.823,0,0,1,.824,1.424l-6.715,3.876a.812.812,0,0,1-.41.111" transform="translate(-334.827 -199.064)"/>
    <path id="패스_2765" data-name="패스 2765" d="M437.339,350.754h-7.75a.823.823,0,1,1,0-1.647h7.75a.823.823,0,0,1,0,1.647" transform="translate(-354.674 -288.78)"/>
    <path id="패스_2766" data-name="패스 2766" d="M414.079,441.086a.813.813,0,0,1-.411-.111l-6.7-3.877a.823.823,0,0,1,.824-1.424l6.7,3.877a.823.823,0,0,1-.413,1.536" transform="translate(-336.301 -360.295)"/>
    <path id="패스_2767" data-name="패스 2767" d="M348.709,507.751a.824.824,0,0,1-.713-.412l-3.874-6.7a.823.823,0,0,1,1.424-.823l3.874,6.7a.823.823,0,0,1-.3,1.124.814.814,0,0,1-.41.111" transform="translate(-284.565 -413.103)"/>
    <path id="패스_2768" data-name="패스 2768" d="M258.943,532.762a.823.823,0,0,1-.823-.823v-7.754a.823.823,0,1,1,1.647,0v7.754a.823.823,0,0,1-.823.823" transform="translate(-213.516 -432.924)"/>
    <path id="패스_2769" data-name="패스 2769" d="M149.891,509.521a.812.812,0,0,1-.41-.111.821.821,0,0,1-.3-1.124l3.88-6.705a.823.823,0,0,1,1.424.823l-3.88,6.705a.821.821,0,0,1-.714.412" transform="translate(-123.31 -414.566)"/>
    <path id="패스_2770" data-name="패스 2770" d="M69.714,444.126a.823.823,0,0,1-.413-1.536l6.7-3.879a.823.823,0,1,1,.823,1.424l-6.7,3.879a.812.812,0,0,1-.41.111" transform="translate(-56.986 -362.809)"/>
    <path id="패스_2771" data-name="패스 2771" d="M47.45,354.238H39.7a.824.824,0,0,1,0-1.647H47.45a.824.824,0,0,1,0,1.647" transform="translate(-32.161 -291.662)"/>
    <path id="패스_2772" data-name="패스 2772" d="M74.656,249.216a.819.819,0,0,1-.409-.11l-6.711-3.866a.823.823,0,1,1,.821-1.427l6.711,3.866a.823.823,0,0,1-.412,1.537" transform="translate(-55.524 -201.591)"/>
    <path id="패스_2773" data-name="패스 2773" d="M150.738,171.808a.823.823,0,0,1-.713-.412l-3.876-6.714a.823.823,0,0,1,1.424-.823l3.876,6.714a.822.822,0,0,1-.3,1.124.813.813,0,0,1-.411.111" transform="translate(-120.802 -135.203)"/>
    <path id="패스_2774" data-name="패스 2774" d="M45.429,92.745a45.424,45.424,0,1,0,45.425,45.419A45.475,45.475,0,0,0,45.429,92.745m42.709,45.419a42.711,42.711,0,1,1-42.709-42.7,42.76,42.76,0,0,1,42.709,42.7" transform="translate(0 -76.718)"/>
    <path id="패스_2775" data-name="패스 2775" d="M68.121,120.135a40.686,40.686,0,1,0,40.686,40.686,40.733,40.733,0,0,0-40.686-40.686m38,40.686a38,38,0,1,1-38-38,38.045,38.045,0,0,1,38,38" transform="translate(-22.693 -99.375)"/>
    <path id="패스_2776" data-name="패스 2776" d="M200.595,260.587h-15.81l-12.606-17.664a1.342,1.342,0,0,0-2.184,1.56L183,262.709a1.345,1.345,0,0,0,1.092.562h16.5a1.342,1.342,0,1,0,0-2.684" transform="translate(-140.414 -200.484)" fill="#d6513a"/>
    <path id="패스_2777" data-name="패스 2777" d="M641.634,140.364l4.634-4.634a.91.91,0,0,0-1.287-1.287l-3.346,3.347-1.48-1.48a.91.91,0,0,0-1.287,1.287Z" transform="translate(-528.229 -110.971)"/>
  </g>
</svg>
