<svg xmlns="http://www.w3.org/2000/svg" xmlns:xlink="http://www.w3.org/1999/xlink" width="80.295" height="85.491" viewBox="0 0 80.295 85.491">
  <defs>
    <clipPath id="clip-path">
      <rect id="사각형_1649" data-name="사각형 1649" width="19.186" height="62.448" fill="#d6513a"/>
    </clipPath>
    <clipPath id="clip-path-2">
      <rect id="사각형_1633" data-name="사각형 1633" width="15.178" height="19.602" fill="#d6513a"/>
    </clipPath>
  </defs>
  <g id="그룹_10761" data-name="그룹 10761" transform="translate(0 0)">
    <g id="그룹_10762" data-name="그룹 10762" transform="translate(0 0)">
      <g id="그룹_10781" data-name="그룹 10781" transform="translate(61.109 9.646)">
        <g id="그룹_10780" data-name="그룹 10780" clip-path="url(#clip-path)">
          <path id="패스_2979" data-name="패스 2979" d="M18.86,28.154l-.061-.075-2.011-3.016,1.948-5.6a1.714,1.714,0,0,0-.172-1.7L8.006.869A1.669,1.669,0,0,0,6.966.032,1.851,1.851,0,0,0,5.624.326L5.591.344a1.3,1.3,0,0,0-.621.9A1.96,1.96,0,0,0,5.1,2.482l4.8,7.68L7.945,15.776a1.349,1.349,0,0,0,.119,1.369l.039.039,7.607,12.124v.141a.806.806,0,0,0,.094.127l.137.142,0,.2V54.3c0,2.209-1.473,4.657-3.939,4.939a4.959,4.959,0,0,1-4.024-1.084,4.743,4.743,0,0,1-1.69-3.621V34.373c0-3.87-2.828-7.527-6.29-8.285v3.861a4.776,4.776,0,0,1,3.048,4.424V54.3a8.088,8.088,0,0,0,13.146,6.362,7.867,7.867,0,0,0,2.992-6.128V28.912a2.1,2.1,0,0,1-.209-.481,1.121,1.121,0,0,0-.116-.278" transform="translate(0 0)" fill="#d6513a"/>
        </g>
      </g>
      <path id="패스_2954" data-name="패스 2954" d="M61.981,72.4l.267-61.447A11.471,11.471,0,0,0,50.761,0h-33.4A11.062,11.062,0,0,0,6.145,10.955v61.18A7.155,7.155,0,0,0,0,79.081v3.74a2.677,2.677,0,0,0,2.672,2.671H65.454a2.524,2.524,0,0,0,2.672-2.671v-3.74A6.7,6.7,0,0,0,61.981,72.4m3.693,10.419a.16.16,0,0,1-.22.22H2.672s-.22-.02-.22-.22v-3.74a4.705,4.705,0,0,1,4.065-4.523l2.079-.32V10.955a8.309,8.309,0,0,1,2.559-6.019,8.875,8.875,0,0,1,6.21-2.483h33.4A9.006,9.006,0,0,1,59.8,11.006l-.267,61.385-.01,2.281,2.274.175a4.246,4.246,0,0,1,3.881,4.234Z" transform="translate(0 -0.001)" fill="#040000"/>
      <g id="그룹_10782" data-name="그룹 10782" transform="translate(14.65 8.235)">
        <path id="패스_2955" data-name="패스 2955" d="M101.589,38.492a5.652,5.652,0,0,0-3.834-1.549H70.089a5.458,5.458,0,0,0-5.58,5.58V78.957a5.458,5.458,0,0,0,5.58,5.58H97.755a5.458,5.458,0,0,0,5.58-5.58V42.523a5.5,5.5,0,0,0-1.746-4.03m-.672,40.465a3.044,3.044,0,0,1-3.162,3.162H70.089a3.044,3.044,0,0,1-3.162-3.162V42.523a3.044,3.044,0,0,1,3.162-3.162H97.755a3.2,3.2,0,0,1,3.162,3.162Z" transform="translate(-64.509 -36.943)" fill="#040000"/>
        <g id="그룹_10764" data-name="그룹 10764" transform="translate(11.824 13.996)">
          <g id="그룹_10763" data-name="그룹 10763" transform="translate(0 0)" clip-path="url(#clip-path-2)">
            <path id="패스_2956" data-name="패스 2956" d="M14.44,8.91A17.545,17.545,0,0,0,12.6,5.592c-.614-.8-1.352-1.721-2.212-2.7S8.91,1.168,8.48.737A10.7,10.7,0,0,1,7.619,0l-.8.737A36.684,36.684,0,0,0,2.642,5.53a15.356,15.356,0,0,0-1.9,3.38A8.208,8.208,0,0,0,0,12.044a7.426,7.426,0,0,0,.553,2.949,7.343,7.343,0,0,0,3.994,3.994A6.865,6.865,0,0,0,7.5,19.6a7.141,7.141,0,0,0,3.011-.614,6.816,6.816,0,0,0,2.458-1.6,8.174,8.174,0,0,0,1.6-2.4,6.865,6.865,0,0,0,.614-2.949A8.208,8.208,0,0,0,14.44,8.91" transform="translate(0 0)" fill="#d6513a"/>
          </g>
        </g>
      </g>
    </g>
  </g>
</svg>
