<svg xmlns="http://www.w3.org/2000/svg" width="130.025" height="100.856" viewBox="0 0 130.025 100.856">
  <g id="그룹_10746" data-name="그룹 10746" transform="translate(0 0.5)">
    <path id="패스_2916" data-name="패스 2916" d="M161.271,67.812l-.89-.724c-10.615-8.629-17.545-14.484-23.753-20.7C123.594,33.6,124.054,21.826,124.137,20.652c-.009-.212-.016-.45-.016-.692A20.245,20.245,0,0,1,144.249,0a19.634,19.634,0,0,1,11.027,3.451,21.331,21.331,0,0,1,5.995,6.132,21.334,21.334,0,0,1,5.995-6.132A19.635,19.635,0,0,1,178.292,0a20.246,20.246,0,0,1,20.129,19.96c0,.239-.007.472-.016.693.082,1.178.54,12.948-12.5,25.742-6.2,6.21-13.126,12.064-23.742,20.693Zm-34.308-45.7a24.522,24.522,0,0,0,1.1,5.852c1.222,3.966,4.045,10.033,10.553,16.418,5.957,5.968,12.614,11.619,22.655,19.794,10.041-8.175,16.7-13.825,22.645-19.783,6.519-6.4,9.342-12.463,10.564-16.429a24.5,24.5,0,0,0,1.1-5.852h-.062l.063-1.472c.011-.254.018-.466.018-.678A17.453,17.453,0,0,0,178.292,2.823a17.935,17.935,0,0,0-15.746,10.26l-.383.8h-1.781l-.387-.8a17.935,17.935,0,0,0-15.746-10.26A17.453,17.453,0,0,0,126.943,19.96c0,.227.008.453.018.679l.062,1.471Z" transform="translate(-95.702 0)" fill="#d6513a" stroke="#d6513a" stroke-width="1"/>
    <path id="패스_2917" data-name="패스 2917" d="M35.5,156.293c-.036-.005-.059-.008-.091-.011a8.978,8.978,0,0,1-5.556-3.523c-.253-.31-.527-.65-.82-1.014-4.774-5.92-9.813-11.757-14.342-12.444a10.521,10.521,0,0,0-1.714-.12,1.606,1.606,0,0,0,.072-.873,63.526,63.526,0,0,1-.677-10.733c0-5.686-.821-10.982-6.776-11.23a2.891,2.891,0,0,0-2.516,1.448c-3,4.29-4.18,21.514-1.862,27.1,1.151,2.775,4.321,9.662,7.93,16.327,6.772,12.507,9.43,13.715,10.3,14.112,4.279,1.945,15.117,8.74,16.419,9.559.9.789,5.638,4.58,13.889,5.129.412.027.822.041,1.219.041,4.409,0,7.8-1.627,9.56-4.581,1.625-2.732,2.457-7.734-2.8-16.041-6.6-10.415-10.323-11.387-22.233-13.152m22.283,27.555c-1.272,2.139-4.119,3.228-7.81,2.98-7.725-.515-12-4.347-12.037-4.384a1.6,1.6,0,0,0-.241-.186c-.5-.313-12.195-7.691-16.917-9.837-1.575-.716-4.951-5.59-8.812-12.721-3.551-6.559-6.661-13.312-7.787-16.028-.935-2.254-1.232-7.723-.74-13.607.586-7,1.831-9.9,2.308-10.5,1.4.071,3.421.363,3.421,8.014a64.267,64.267,0,0,0,.739,11.359,1.6,1.6,0,0,0,.438.819,3.676,3.676,0,0,0-1.786,1.789c-.731,1.626-.114,3.528,1.61,4.964,1.878,1.565,5.045,7.416,6.106,9.539a1.6,1.6,0,0,0,2.867-1.434c-.421-.842-4.193-8.295-6.921-10.568-.654-.545-.8-1.043-.738-1.188.106-.235.94-.658,2.729-.386,3.675.557,9.3,7.537,12.327,11.287.3.368.575.712.831,1.027a12.147,12.147,0,0,0,7.693,4.684c11.214,1.662,14.085,2.408,19.965,11.691,3.426,5.41,4.405,9.916,2.757,12.689" transform="translate(0 -89.711)"/>
    <path id="패스_2918" data-name="패스 2918" d="M356.827,117.8a2.893,2.893,0,0,0-2.517-1.448c-5.954.248-6.775,5.544-6.775,11.23a63.49,63.49,0,0,1-.677,10.73,1.606,1.606,0,0,0,.07.875,10.424,10.424,0,0,0-1.713.12c-4.528.686-9.568,6.523-14.342,12.443l-.071.088c-.267.331-.517.641-.75.926a8.992,8.992,0,0,1-5.541,3.522c-.035,0-.071.007-.107.012-11.91,1.764-15.637,2.736-22.233,13.152-5.261,8.307-4.429,13.309-2.8,16.041,1.756,2.954,5.151,4.581,9.559,4.581h0c.4,0,.81-.014,1.219-.041,8.25-.55,12.986-4.34,13.889-5.129,1.3-.82,12.148-7.617,16.419-9.559.874-.4,3.532-1.605,10.3-14.112,3.609-6.666,6.78-13.552,7.93-16.327,2.318-5.589,1.134-22.814-1.862-27.1m-9.14,26.25c-2.727,2.273-6.5,9.726-6.921,10.568a1.6,1.6,0,1,0,2.866,1.434c1.062-2.123,4.228-7.974,6.106-9.539,1.723-1.437,2.341-3.339,1.61-4.964a3.675,3.675,0,0,0-1.786-1.789,1.6,1.6,0,0,0,.438-.818,64.455,64.455,0,0,0,.739-11.359c0-7.652,2.017-7.943,3.421-8.015.477.606,1.722,3.5,2.308,10.5.492,5.885.195,11.353-.74,13.607-1.126,2.715-4.236,9.468-7.788,16.028-3.861,7.131-7.237,12-8.812,12.721-4.732,2.151-16.421,9.525-16.916,9.837a1.649,1.649,0,0,0-.235.181,15.075,15.075,0,0,1-3.073,2,23.226,23.226,0,0,1-8.971,2.393c-3.692.249-6.538-.839-7.81-2.979-1.648-2.773-.669-7.279,2.757-12.689,5.879-9.283,8.75-10.03,19.96-11.691a12.153,12.153,0,0,0,7.7-4.685c.256-.314.534-.659.831-1.028,3.024-3.75,8.652-10.729,12.326-11.286,1.79-.272,2.623.151,2.729.386.065.145-.084.643-.738,1.188" transform="translate(-229.884 -89.711)"/>
    <path id="패스_2919" data-name="패스 2919" d="M280.484,229.628h5.378a1.436,1.436,0,0,0,1.284-.807l1.936-4.018,3.706,9.188a1.43,1.43,0,0,0,1.342.887h.041a1.434,1.434,0,0,0,1.3-1.008l3.945-12.915,3.945,12.92a1.439,1.439,0,0,0,1.324,1h.043a1.42,1.42,0,0,0,1.317-.892l3.7-9.182,1.934,4.013a1.431,1.431,0,0,0,1.286.811h5.379a1.425,1.425,0,0,0,0-2.851h-4.484l-2.945-6.11a1.439,1.439,0,0,0-1.3-.813h-.031a1.426,1.426,0,0,0-1.279.892l-3.4,8.435-4.131-13.526a1.438,1.438,0,0,0-2.725,0l-4.131,13.526-3.4-8.438a1.432,1.432,0,0,0-1.284-.889h-.041a1.431,1.431,0,0,0-1.28.806l-2.948,6.116h-4.483a1.425,1.425,0,1,0,0,2.851" transform="translate(-234.403 -196.369)" fill="#d6513a"/>
  </g>
</svg>
