<svg id="그룹_10710" data-name="그룹 10710" xmlns="http://www.w3.org/2000/svg" width="103.647" height="102.653" viewBox="0 0 103.647 102.653">
  <g id="그룹_10724" data-name="그룹 10724" transform="translate(0)">
    <path id="패스_2714" data-name="패스 2714" d="M318.985,523.559h-.017a1.425,1.425,0,0,1-1.408-1.442l.164-13.47-13.016-8.5a1.425,1.425,0,1,1,1.559-2.386l13.672,8.932a1.425,1.425,0,0,1,.646,1.21l-.173,14.252a1.425,1.425,0,0,1-1.425,1.409" transform="translate(-260.72 -426.608)" fill="#20201d"/>
    <path id="패스_2715" data-name="패스 2715" d="M412.334,434.735h-.068a1.426,1.426,0,0,1-1.358-1.491l.647-13.882a6.814,6.814,0,0,0-1.983-4.375,1.407,1.407,0,0,1-.125-.143l-9.176-12.025a1.426,1.426,0,0,1-.292-.864V395.36a1.425,1.425,0,1,1,2.851,0v6.111l8.829,11.57a9.664,9.664,0,0,1,2.747,6.23c0,.049,0,.1,0,.146l-.651,13.959a1.426,1.426,0,0,1-1.423,1.359" transform="translate(-342.968 -337.785)" fill="#20201d"/>
    <path id="패스_2716" data-name="패스 2716" d="M418.9,244.684c-1.191,0-2.56-.036-4.024-.139a1.424,1.424,0,0,1-1.322-1.521,1.41,1.41,0,0,1,1.521-1.321,56.782,56.782,0,0,0,6.361.072l-2-10.166a1.424,1.424,0,0,1,.686-1.51l24.053-13.883c-7.62-3.424-13.289-9.068-17.276-17.179a29.053,29.053,0,0,0-22.98-16.195,1.425,1.425,0,0,1,.173-2.845,31.918,31.918,0,0,1,25.365,17.783c4.112,8.366,10.146,13.883,18.446,16.866a1.426,1.426,0,0,1,.23,2.577l-25.7,14.837,2.119,10.758a1.424,1.424,0,0,1-1.262,1.694c-.1.011-1.837.173-4.384.173" transform="translate(-345.199 -154.337)" fill="#20201d"/>
    <path id="패스_2717" data-name="패스 2717" d="M275.051,22.806c-5.968,0-9.978-4.582-9.978-11.4S269.083,0,275.051,0s9.978,4.582,9.978,11.4-4.01,11.4-9.978,11.4m0-19.955c-5.26,0-7.127,4.607-7.127,8.552s1.867,8.552,7.127,8.552,7.127-4.607,7.127-8.552-1.867-8.552-7.127-8.552" transform="translate(-227.29)" fill="#20201d"/>
    <path id="패스_2718" data-name="패스 2718" d="M319.349,182.851H316.5a1.425,1.425,0,0,1,0-2.851h2.851a1.425,1.425,0,1,1,0,2.851" transform="translate(-270.163 -154.343)" fill="#20201d"/>
    <path id="패스_2719" data-name="패스 2719" d="M326.5,198.53a1.426,1.426,0,0,1-1.425-1.425V181.425a1.425,1.425,0,1,1,2.851,0V197.1a1.426,1.426,0,0,1-1.425,1.425" transform="translate(-278.738 -154.343)" fill="#20201d"/>
    <path id="패스_2720" data-name="패스 2720" d="M221.8,212.706H205.413a4.989,4.989,0,0,1,0-9.978H216.1v-4.275a1.425,1.425,0,1,1,2.851,0v5.7a1.425,1.425,0,0,1-1.425,1.425H205.413a2.138,2.138,0,0,0,0,4.277H221.8A2.854,2.854,0,0,0,224.656,207l-.016-17.251a8.53,8.53,0,0,0-8.115-6.9h-.1l-6.919,15.359a2.879,2.879,0,0,1-2.554,1.59,2.846,2.846,0,0,1-2.51-1.5l-6.963-15.449h-.827a9.75,9.75,0,0,0-3.332.629,8.466,8.466,0,0,0-4.781,4.653l-.147.345a1.425,1.425,0,0,1-2.623-1.118l.147-.344a11.327,11.327,0,0,1,6.415-6.21,12.453,12.453,0,0,1,4.321-.806H198.4a1.424,1.424,0,0,1,1.3.84l7.3,16.2,7.208-16.2a1.425,1.425,0,0,1,1.3-.84h1.018a11.4,11.4,0,0,1,10.936,9.314,1.415,1.415,0,0,1,.029.27l.017,1.728V207a5.708,5.708,0,0,1-5.7,5.7" transform="translate(-159.194 -154.342)" fill="#20201d"/>
    <path id="패스_2721" data-name="패스 2721" d="M164.271,443.026H161.42a1.425,1.425,0,1,1,0-2.851h2.851a1.425,1.425,0,1,1,0,2.851" transform="translate(-137.19 -377.434)" fill="#20201d"/>
    <path id="패스_2722" data-name="패스 2722" d="M119.973,282.985c-5.968,0-9.978-4.582-9.978-11.4s4.01-11.4,9.978-11.4,9.978,4.582,9.978,11.4-4.01,11.4-9.978,11.4m0-19.955c-5.26,0-7.127,4.607-7.127,8.552s1.867,8.552,7.127,8.552,7.127-4.607,7.127-8.552-1.867-8.552-7.127-8.552" transform="translate(-94.317 -223.095)" fill="#20201d"/>
    <path id="패스_2723" data-name="패스 2723" d="M171.42,458.7a1.425,1.425,0,0,1-1.425-1.425V441.6a1.425,1.425,0,0,1,2.851,0v15.679a1.425,1.425,0,0,1-1.425,1.425" transform="translate(-145.764 -377.434)" fill="#20201d"/>
    <path id="패스_2724" data-name="패스 2724" d="M65.29,543.138a1.425,1.425,0,0,1-1.155-2.259l1.725-2.391a3.384,3.384,0,0,1,3.865-1.446l5.6,1.051c1.528-.175,9.943-1.011,15.829.839l-.417-4.23a1.425,1.425,0,1,1,2.837-.281l.65,6.585a1.426,1.426,0,0,1-2.094,1.4c-5.273-2.841-16.562-1.47-16.676-1.455a1.451,1.451,0,0,1-.439-.014l-5.954-1.116a1.381,1.381,0,0,1-.306-.093c-.1-.05-.4.173-.587.433l-1.724,2.39a1.422,1.422,0,0,1-1.157.592" transform="translate(-54.763 -457.145)" fill="#20201d"/>
    <path id="패스_2725" data-name="패스 2725" d="M71.42,660.154A1.425,1.425,0,0,1,70,658.729V651.6a1.425,1.425,0,1,1,2.851,0v7.128a1.425,1.425,0,0,1-1.425,1.425" transform="translate(-60.018 -557.501)" fill="#20201d"/>
    <path id="패스_2726" data-name="패스 2726" d="M42.564,471.649H31.971a15.077,15.077,0,0,1-3.835-.7,1.6,1.6,0,0,1-.185.028l-8.2.671-13.873,0a6.448,6.448,0,0,1-4.79-2.05,4.38,4.38,0,0,1-1.042-3.547l2.961-16.53c1.035-5.082,6.686-9.347,12.347-9.347H17.1a1.425,1.425,0,0,1,1.3.839l7.3,16.2,7.209-16.2a1.425,1.425,0,0,1,1.3-.839h1.018a11.4,11.4,0,0,1,10.936,9.315L48.4,466.068a4.06,4.06,0,0,1-.931,3.363,6.54,6.54,0,0,1-4.9,2.217M27.73,467.773a14.142,14.142,0,0,0,4.241,1.024H42.564a3.693,3.693,0,0,0,2.7-1.175,1.228,1.228,0,0,0,.323-1.087l-2.235-16.571a8.517,8.517,0,0,0-8.126-6.939h-.1l-6.919,15.36a2.878,2.878,0,0,1-2.554,1.588h0a2.847,2.847,0,0,1-2.51-1.5l-6.963-15.451h-.827c-4.323,0-8.784,3.287-9.547,7.032L2.862,466.511a1.487,1.487,0,0,0,.386,1.224A3.633,3.633,0,0,0,5.881,468.8H19.637l4.035-.332c-3.179-2.012-8.836-5.081-13.274-4.635a1.426,1.426,0,0,1-1.532-1.723l1.572-7.176a1.426,1.426,0,0,1,2.785.61l-1.188,5.422c6.857.412,14.6,6,15.695,6.811" transform="translate(0 -377.434)" fill="#20201d"/>
    <path id="패스_2727" data-name="패스 2727" d="M259.735,652.146a1.425,1.425,0,0,1-1.425-1.425v-8.33a1.425,1.425,0,0,1,2.851,0v8.33a1.425,1.425,0,0,1-1.425,1.425" transform="translate(-221.491 -549.604)" fill="#20201d"/>
    <path id="패스_2728" data-name="패스 2728" d="M325.071,668.737a1.425,1.425,0,0,1-1.425-1.425v-4.276H300.84v4.276a1.425,1.425,0,0,1-1.425,1.425h-10.3a1.425,1.425,0,1,1,0-2.851h8.879V661.61a1.425,1.425,0,0,1,1.425-1.425h25.657a1.425,1.425,0,0,1,1.425,1.425v5.7a1.425,1.425,0,0,1-1.425,1.425" transform="translate(-246.679 -566.084)" fill="#d6513a"/>
  </g>
</svg>
