<svg xmlns="http://www.w3.org/2000/svg" xmlns:xlink="http://www.w3.org/1999/xlink" width="135.172" height="62.176" viewBox="0 0 135.172 62.176">
  <defs>
    <clipPath id="clip-path">
      <rect id="사각형_1631" data-name="사각형 1631" width="35.563" height="8.975" transform="translate(0 0)" fill="none"/>
    </clipPath>
  </defs>
  <g id="그룹_10757" data-name="그룹 10757" transform="translate(-630.404 -6374.625)">
    <g id="그룹_10753" data-name="그룹 10753" transform="translate(692.029 6407.614)">
      <g id="그룹_10752" data-name="그룹 10752" transform="translate(0 0)" clip-path="url(#clip-path)">
        <path id="패스_2936" data-name="패스 2936" d="M46.459,0a.989.989,0,1,0,.989.989A.989.989,0,0,0,46.459,0" transform="translate(-37.5 0)" fill="#cf000e"/>
        <path id="패스_2937" data-name="패스 2937" d="M47.38,13.795H45.874a.2.2,0,0,0-.2.2v5.966a.2.2,0,0,0,.2.2H47.38a.2.2,0,0,0,.2-.2V13.995a.2.2,0,0,0-.2-.2" transform="translate(-37.668 -11.377)" fill="#cf000e"/>
        <path id="패스_2938" data-name="패스 2938" d="M66.519,12.9a2.387,2.387,0,0,0-2.073.833v-.475a.2.2,0,0,0-.2-.2H62.77a.2.2,0,0,0-.2.2v5.962a.2.2,0,0,0,.2.2h1.51a.2.2,0,0,0,.2-.2V15.853a1.377,1.377,0,0,1,1.4-1.508,1.351,1.351,0,0,1,1.4,1.508v3.372a.2.2,0,0,0,.2.2h1.51a.2.2,0,0,0,.2-.2v-3.84a2.35,2.35,0,0,0-2.658-2.48" transform="translate(-51.604 -10.643)" fill="#cf000e"/>
        <path id="패스_2939" data-name="패스 2939" d="M110.109,12.9a2.387,2.387,0,0,0-2.073.833v-.475a.2.2,0,0,0-.2-.2H106.36a.2.2,0,0,0-.2.2v5.962a.2.2,0,0,0,.2.2h1.51a.2.2,0,0,0,.2-.2V15.853a1.377,1.377,0,0,1,1.4-1.508,1.351,1.351,0,0,1,1.4,1.508v3.372a.2.2,0,0,0,.2.2h1.51a.2.2,0,0,0,.2-.2v-3.84a2.35,2.35,0,0,0-2.658-2.48" transform="translate(-87.554 -10.643)" fill="#cf000e"/>
        <path id="패스_2940" data-name="패스 2940" d="M192.6,1.979a.989.989,0,1,0-.989-.989.989.989,0,0,0,.989.989" transform="translate(-158.023 -0.001)" fill="#cf000e"/>
        <path id="패스_2941" data-name="패스 2941" d="M193.519,13.795h-1.506a.2.2,0,0,0-.2.2v5.966a.2.2,0,0,0,.2.2h1.506a.2.2,0,0,0,.2-.2V13.995a.2.2,0,0,0-.2-.2" transform="translate(-158.192 -11.377)" fill="#cf000e"/>
        <path id="패스_2942" data-name="패스 2942" d="M3.051,6.179H1.91V3.736h1.14c.927,0,1.7.16,1.7,1.222s-.771,1.222-1.7,1.222M5.158,7.33a2.142,2.142,0,0,0,1.5-2.372c0-1.864-1.228-2.548-3.4-2.548H.2A.2.2,0,0,0,0,2.6v7.975a.2.2,0,0,0,.2.193H1.711a.2.2,0,0,0,.2-.193V7.506H3.092l2.1,3.026a.534.534,0,0,0,.448.239H7.247a.155.155,0,0,0,.134-.238Z" transform="translate(0 -1.987)" fill="#cf000e"/>
        <path id="패스_2943" data-name="패스 2943" d="M153.067,16.922a1.44,1.44,0,0,1-1.6,1.493c-.747.021-1.377-.3-1.395-.79-.039-1.117,2.283-1.07,2.8-1.037.181.012.191.012.191.1Zm-2.61-3.832a2.643,2.643,0,0,0-1.947,1.668c-.032.093.069.172.158.171l1.7-.01a.211.211,0,0,0,.167-.067,1.55,1.55,0,0,1,1.388-.522c1.227.07,1.128,1.064,1.128,1.146-4.115-.374-5.146,1.461-4.624,2.813.6,1.551,3.612,1.733,4.593.65.12.342.147.5.417.5h1.277a.2.2,0,0,0,.2-.2V15.473c0-2.717-3.048-2.772-4.46-2.383" transform="translate(-122.306 -10.652)" fill="#cf000e"/>
      </g>
    </g>
    <g id="그룹_10756" data-name="그룹 10756" transform="translate(646.283 6374.625)">
      <g id="그룹_10783" data-name="그룹 10783" transform="translate(0 0)">
        <path id="패스_2944" data-name="패스 2944" d="M117.912,43.955a68.281,68.281,0,0,0-1.379-17.634h0l-.175-.848c-.16-.767-3.977-18.834-9.333-22.707C106.645,2.483,103.2,0,99.677,0H16.53a14.615,14.615,0,0,0-14.6,14.6V43.955H0v8.053H3.329C4.594,53.488,6.81,55.179,9,55.179h9.007a8.672,8.672,0,0,0,17.018,0H85.19a8.672,8.672,0,0,0,17.018,0H116.68l.131-1.071c0-.011.134-1.08.273-2.1h2.209V43.955Zm-28.928-19.1V2.439H99.677a11.475,11.475,0,0,1,5.908,2.3c3.413,2.467,6.783,14.1,8.144,20.123Zm25.637,27.151c-.034.254-.067.5-.1.731H102.337a8.664,8.664,0,0,0-13.245-6.6V27.3h25.133a65.84,65.84,0,0,1,1.244,16.657H110.7l-3.241,8.053ZM93.7,47.252a6.241,6.241,0,1,1-6.242,6.241A6.248,6.248,0,0,1,93.7,47.252m23.154-.857v3.173h-5.778l1.278-3.173ZM4.371,24.858V14.6A12.173,12.173,0,0,1,16.53,2.439H29.384V24.858ZM31.825,2.439H57.406V24.858H31.825Zm28.022,0h26.7V24.858h-26.7ZM26.515,47.252a6.241,6.241,0,1,1-6.242,6.241,6.249,6.249,0,0,1,6.242-6.241M9.707,49.568H2.44V46.395H9.707Zm2.481,2.44-.026-8.053H4.371V27.3H86.652V48.443a8.634,8.634,0,0,0-1.593,4.3H35.154a8.671,8.671,0,0,0-17.278,0H9a3.937,3.937,0,0,1-2.012-.731Z" transform="translate(0 0.001)"/>
      </g>
    </g>
    <path id="패스_2945" data-name="패스 2945" d="M213.387,422.923h-5.33a1.063,1.063,0,1,1,0-2.126h5.33a1.063,1.063,0,0,1,0,2.126" transform="translate(434.745 5955.189)" fill="#d6513a"/>
    <path id="패스_2950" data-name="패스 2950" d="M213.387,422.923h-5.33a1.063,1.063,0,1,1,0-2.126h5.33a1.063,1.063,0,0,1,0,2.126" transform="translate(428.621 5998.056)" fill="#d6513a"/>
    <path id="패스_2949" data-name="패스 2949" d="M212.132,422.923h-9.424a1.063,1.063,0,1,1,0-2.126h9.424a1.063,1.063,0,1,1,0,2.126" transform="translate(430.641 5987.339)" fill="#d6513a"/>
    <path id="패스_2947" data-name="패스 2947" d="M212.019,422.923h-9.792a1.063,1.063,0,1,1,0-2.126h9.792a1.063,1.063,0,1,1,0,2.126" transform="translate(431.52 5966.247)" fill="#d6513a"/>
    <path id="패스_2948" data-name="패스 2948" d="M212.019,422.923h-9.792a1.063,1.063,0,1,1,0-2.126h9.792a1.063,1.063,0,1,1,0,2.126" transform="translate(439.16 5991.305)" fill="#d6513a"/>
    <path id="패스_2946" data-name="패스 2946" d="M293.29,422.923h-5.329a1.063,1.063,0,1,1,0-2.126h13.128a1.063,1.063,0,1,1,0,2.126" transform="translate(343.506 5960.718)" fill="#d6513a"/>
  </g>
</svg>
