<svg xmlns="http://www.w3.org/2000/svg" xmlns:xlink="http://www.w3.org/1999/xlink" width="85.35" height="92.677" viewBox="0 0 85.35 92.677">
  <defs>
    <clipPath id="clip-path">
      <rect id="사각형_1634" data-name="사각형 1634" width="28.931" height="26.58" fill="#d6513a"/>
    </clipPath>
  </defs>
  <g id="그룹_10772" data-name="그룹 10772" transform="translate(0 -7.371)">
    <g id="그룹_10773" data-name="그룹 10773" transform="translate(0 7.371)">
      <g id="그룹_10775" data-name="그룹 10775" transform="translate(32.467 0)">
        <g id="그룹_10774" data-name="그룹 10774">
          <g id="그룹_10769" data-name="그룹 10769" clip-path="url(#clip-path)">
            <path id="패스_2963" data-name="패스 2963" d="M14.465,26.58l-2.079-1.9C4.882,17.9,0,13.471,0,7.956A7.91,7.91,0,0,1,7.956,0a8.688,8.688,0,0,1,6.509,2.983A8.688,8.688,0,0,1,20.975,0a7.91,7.91,0,0,1,7.956,7.956c0,5.424-4.882,9.945-12.386,16.725Z" transform="translate(0 0)" fill="#d6513a"/>
          </g>
        </g>
        <path id="패스_2965" data-name="패스 2965" d="M176.924,110.367l-.044-.27a2.629,2.629,0,0,0-.633-1.025,2.316,2.316,0,0,0-3.257,0,2.046,2.046,0,0,0-.571.953,3.021,3.021,0,0,0-.107.613v2.019c-.163-.125-.335-.246-.506-.367v-5.2l-.044-.27a2.608,2.608,0,0,0-.634-1.026,2.318,2.318,0,0,0-3.255,0,2.036,2.036,0,0,0-.569.947,2.892,2.892,0,0,0-.111.622v2.663c-.173-.052-.343-.1-.514-.141l-.011-3.941-.028-.216a2.412,2.412,0,0,0-.631-1.083,2.315,2.315,0,0,0-3.252,0,2.068,2.068,0,0,0-.573.953,2.49,2.49,0,0,0-.093.529l-.02.091,0,3.338c-.173.028-.339.064-.5.1V97.213l-.033-.233a2.559,2.559,0,0,0-.647-1.106,2.175,2.175,0,0,0-1.558-.673H159.2a2.209,2.209,0,0,0-1.561.677,2.062,2.062,0,0,0-.569.952,2.651,2.651,0,0,0-.107.747v16.957c0,.445-.074.48-.184.529-.139.063-.346.09-.6-.173l-5.8-5.249a2.673,2.673,0,0,0-1.2-.586,2.269,2.269,0,0,0-1.746.317l-.119.081a2.307,2.307,0,0,0-.963,1.492,2.15,2.15,0,0,0,.057,1.154,2.324,2.324,0,0,0,.287.624l5.714,11.571a14.437,14.437,0,0,0,1.159,1.973,31,31,0,0,0,5.182,5.711,4.313,4.313,0,0,0,2.689.939h8.818c1.537,0,3.746-1.645,4.622-3.062a13.458,13.458,0,0,0,2.05-6.456Z" transform="translate(-145.238 -76.064)" fill="#fff"/>
        <path id="패스_2966" data-name="패스 2966" d="M174.324,107.7a4.214,4.214,0,0,0-1.1-1.908,3.762,3.762,0,0,0-2.75-1.147,4.1,4.1,0,0,0-.965.113,1.559,1.559,0,0,0-.035-.163,4.207,4.207,0,0,0-1.1-1.909,3.773,3.773,0,0,0-2.75-1.147,3.84,3.84,0,0,0-1.778.417,3.98,3.98,0,0,0-.318-.359,3.774,3.774,0,0,0-2.75-1.147,4.037,4.037,0,0,0-.949.111V95.65a1.483,1.483,0,0,0-.037-.334,4.13,4.13,0,0,0-1.109-2.02A3.785,3.785,0,0,0,156,92.149h-.149a3.784,3.784,0,0,0-2.681,1.147,3.6,3.6,0,0,0-.987,1.677,4.051,4.051,0,0,0-.161,1.153V109l-3.108-2.713a4.408,4.408,0,0,0-2.173-1.132,4.025,4.025,0,0,0-3.052.575l-.131.088a4.019,4.019,0,0,0-1.692,2.594,3.812,3.812,0,0,0,.117,2.063,4.111,4.111,0,0,0,.511,1.066l5.557,10.952a13.432,13.432,0,0,0,.994,1.676A30.905,30.905,0,0,0,154.311,130a5.751,5.751,0,0,0,3.62,1.307l8.4,0a7.377,7.377,0,0,0,5.843-3.718,14.522,14.522,0,0,0,2.2-6.968V108.085a1.5,1.5,0,0,0-.051-.388m-7.989,21.092h-8.349a3.276,3.276,0,0,1-2.017-.687,28.575,28.575,0,0,1-4.787-5.275,12.838,12.838,0,0,1-1.033-1.76l-5.409-10.956a1.806,1.806,0,0,1-.227-.477,1.273,1.273,0,0,1-.032-.7,1.381,1.381,0,0,1,.586-.915l.087-.058a1.358,1.358,0,0,1,1.068-.19,1.719,1.719,0,0,1,.784.383l3.094,2.8,1.537,1.391.838.758v.727a1.035,1.035,0,0,0,2.071,0V96.124a1.686,1.686,0,0,1,.07-.489,1.19,1.19,0,0,1,.338-.559,1.292,1.292,0,0,1,.93-.408h.1a1.269,1.269,0,0,1,.929.406,1.6,1.6,0,0,1,.41.7v13.444a1.035,1.035,0,1,0,2.07,0l0-4.834a.961.961,0,0,0,.021-.144,1.414,1.414,0,0,1,.054-.31,1.185,1.185,0,0,1,.34-.56,1.378,1.378,0,0,1,.977-.419h0a1.382,1.382,0,0,1,.977.421,1.488,1.488,0,0,1,.391.669l.018,5.4a1.035,1.035,0,1,0,2.07,0v-4.054a1.883,1.883,0,0,1,.072-.362,1.188,1.188,0,0,1,.339-.56,1.38,1.38,0,0,1,.979-.422h0a1.382,1.382,0,0,1,.977.421,1.7,1.7,0,0,1,.409.665v5.638a1.035,1.035,0,1,0,2.071,0v-2.277a1.916,1.916,0,0,1,.071-.362,1.184,1.184,0,0,1,.339-.559,1.349,1.349,0,0,1,1.957,0,1.673,1.673,0,0,1,.409.665v12.338a11.944,11.944,0,0,1-1.824,5.7c-.71,1.148-2.59,2.519-3.7,2.519" transform="translate(-141.78 -73.727)" fill="#d6513a"/>
      </g>
      <path id="패스_2967" data-name="패스 2967" d="M264.078,365.88a3.9,3.9,0,1,1-3.9,3.9,3.9,3.9,0,0,1,3.9-3.9m0-2.575a6.473,6.473,0,1,0,6.473,6.473,6.475,6.475,0,0,0-6.473-6.473" transform="translate(-197.307 -283.573)" fill="#040000"/>
      <path id="패스_2968" data-name="패스 2968" d="M115.168,365.88a3.9,3.9,0,1,1-3.9,3.9,3.9,3.9,0,0,1,3.9-3.9m0-2.575a6.473,6.473,0,1,0,6.473,6.473,6.475,6.475,0,0,0-6.473-6.473" transform="translate(-83.253 -283.573)" fill="#040000"/>
      <path id="패스_2969" data-name="패스 2969" d="M16.159,109.171a2.114,2.114,0,0,1,2.037,1.516l0,.012,0,.013,1.223,3.93,12.438,40.007.25.8.676.5.055.041.68.5H67.492l.864-.006.685-.512.021-.016.686-.5.251-.814,9.309-30.194a1.772,1.772,0,0,1,3.386,1.043l-8.4,27.678L72.521,159a2.124,2.124,0,0,1-2.009,1.428H30.3a2.163,2.163,0,0,1-2.085-1.551L15.138,115.293l-.252-.82-.68-.509-.059-.044-.68-.5H4.7a2.109,2.109,0,0,1-1.714-.868,2.177,2.177,0,0,1-.3-1.995,2.3,2.3,0,0,1,2.242-1.389Zm0-2.575H4.933a4.843,4.843,0,0,0-4.7,3.2A4.715,4.715,0,0,0,4.7,116h7.923l.048.035,13.076,43.586A4.751,4.751,0,0,0,30.3,163H70.512a4.7,4.7,0,0,0,4.46-3.214l1.786-5.871,8.4-27.68a4.346,4.346,0,0,0-8.309-2.555l-9.311,30.2-.048.035H34.371l-.047-.035L21.886,113.877l-1.223-3.93a4.7,4.7,0,0,0-4.5-3.351" transform="translate(0 -86.953)" fill="#040000"/>
    </g>
  </g>
</svg>
