<svg id="그룹_10738" data-name="그룹 10738" xmlns="http://www.w3.org/2000/svg" width="112.754" height="100.583" viewBox="0 0 112.754 100.583">
  <g id="그룹_10739" data-name="그룹 10739">
    <path id="패스_2911" data-name="패스 2911" d="M271.383,160.219a18.448,18.448,0,0,0-10.4,3.183,18.6,18.6,0,0,0-29.012,15.421c0,14.372,27.121,30.835,28.268,31.523a1.406,1.406,0,0,0,.74.207,1.435,1.435,0,0,0,.753-.21c1.154-.7,28.261-17.329,28.261-31.52a18.626,18.626,0,0,0-18.606-18.6M250.57,163.07a15.614,15.614,0,0,1,9.544,3.221,1.427,1.427,0,0,0,1.727,0,15.612,15.612,0,0,1,9.542-3.221,15.772,15.772,0,0,1,15.755,15.753c0,11.593-22.013,26.017-26.16,28.631a116.806,116.806,0,0,1-14.155-10.544c-7.854-6.933-12.006-13.187-12.006-18.087A15.771,15.771,0,0,1,250.57,163.07" transform="translate(-177.235 -122.416)" fill="#d6513a"/>
    <path id="패스_2912" data-name="패스 2912" d="M280.313,227.834h4.733a1.264,1.264,0,0,0,1.13-.71l1.7-3.536,3.261,8.085a1.258,1.258,0,0,0,1.181.78h.036a1.262,1.262,0,0,0,1.144-.887l3.472-11.366,3.472,11.37a1.266,1.266,0,0,0,1.165.883h.038a1.25,1.25,0,0,0,1.159-.785l3.259-8.08,1.7,3.532a1.259,1.259,0,0,0,1.132.714h4.733a1.254,1.254,0,0,0,0-2.509h-3.946l-2.592-5.376a1.267,1.267,0,0,0-1.143-.715h-.027a1.255,1.255,0,0,0-1.125.785l-2.994,7.423-3.635-11.9a1.266,1.266,0,0,0-2.4,0l-3.636,11.9-2.995-7.425a1.26,1.26,0,0,0-1.13-.783h-.036a1.259,1.259,0,0,0-1.127.71l-2.594,5.382h-3.945a1.254,1.254,0,1,0,0,2.509" transform="translate(-213.216 -164.026)" fill="#d6513a"/>
    <path id="패스_2913" data-name="패스 2913" d="M283.686,205.042a5.978,5.978,0,1,0,5.986,5.973,5.979,5.979,0,0,0-5.986-5.973" transform="translate(-212.19 -156.663)" fill="#fff"/>
    <path id="패스_2914" data-name="패스 2914" d="M71.5,46.551a7.793,7.793,0,0,0-1.39,15.463V76.061a21.741,21.741,0,0,1-43.483,0V62.424a25.491,25.491,0,0,0,24.586-25.56V15.7A12.315,12.315,0,0,0,40.648,3.545,4.785,4.785,0,0,0,36.03,0C33.624,0,32.07,1.886,32.07,4.8s1.555,4.8,3.961,4.8a4.774,4.774,0,0,0,4.516-3.236A9.441,9.441,0,0,1,48.434,15.7V36.151c0,3.326-2.516,7.129-6.729,10.173a28.076,28.076,0,0,1-16.1,5.173,28.073,28.073,0,0,1-16.1-5.173C5.3,43.28,2.781,39.478,2.781,36.151V15.7a9.562,9.562,0,0,1,7.933-9.344A4.768,4.768,0,0,0,15.231,9.6c2.405,0,3.96-1.884,3.96-4.8S17.637,0,15.231,0a4.787,4.787,0,0,0-4.616,3.538A12.3,12.3,0,0,0,0,15.7V36.864A25.634,25.634,0,0,0,23.848,62.381v13.68a24.521,24.521,0,0,0,49.043,0V62.015A7.793,7.793,0,0,0,71.5,46.551M36.03,6.823c-.383,0-1.181,0-1.181-2.019s.8-2.023,1.181-2.023a2.014,2.014,0,0,1,1.818,1.148,1.37,1.37,0,0,0,0,1.748A2.013,2.013,0,0,1,36.03,6.823M13.4,3.984a2,2,0,0,1,1.835-1.2c.382,0,1.179,0,1.179,2.023s-.8,2.019-1.179,2.019A2,2,0,0,1,13.4,5.62a1.324,1.324,0,0,0,0-1.636M4.5,45.489a29.728,29.728,0,0,0,42.21,0,22.781,22.781,0,0,1-42.21,0m67,14.21a5.342,5.342,0,1,1,5.342-5.342A5.342,5.342,0,0,1,71.5,59.7"/>
  </g>
</svg>
