<svg xmlns="http://www.w3.org/2000/svg" width="137.504" height="93.605" viewBox="0 0 137.504 93.605">
  <g id="그룹_10722" data-name="그룹 10722" transform="translate(0.5)">
    <path id="패스_2778" data-name="패스 2778" d="M34.233,494.3c-3.352,0-6.079,3.108-6.079,6.928v7.59c0,3.474,2.255,6.358,5.184,6.853v1.953a3.9,3.9,0,0,0-5.268-2.105c-.13-.39-.582-1.778-1.152-3.528l-.093-.286c-1.847-5.667-3.389-10.393-3.558-10.82-.2-.5-.727-1.832-2.038-1.832h-.074c-1.32,0-1.846,1.328-2.046,1.832-.172.435-1.842,5.553-3.538,10.759-.622,1.908-1.147,3.519-1.275,3.9-.03.091-.066.189-.1.292l-.013.036c-.292.791-.78,2.116,0,3.15a2.869,2.869,0,0,0,1.863.975.928.928,0,0,0,.154.013h4.095v6a.895.895,0,0,0,1.79,0v-6h3.849a3.9,3.9,0,0,0,5.813,2.367l1.594,1.61v2.02a.895.895,0,1,0,1.79,0V515.667c2.929-.495,5.184-3.379,5.184-6.853v-7.59c0-3.82-2.727-6.928-6.079-6.928M21.188,511.574a.9.9,0,0,0-.9.895v5.75H16.28c-.469-.092-.622-.214-.672-.28-.192-.253.074-.973.25-1.451l.019-.053c.042-.115.082-.224.116-.326.122-.365.6-1.839,1.21-3.7l.068-.21c1.166-3.579,3.336-10.241,3.5-10.654.21-.531.329-.669.385-.7h.065c.055.034.171.173.381.7.164.415,2.347,7.116,3.52,10.716.689,2.114,1.139,3.5,1.258,3.854.035.106.077.22.121.34l.015.04c.027.072.053.146.08.219a3.885,3.885,0,0,0-.694,1.51h-3.82v-5.75a.9.9,0,0,0-.895-.895m8.524,5.367a2.1,2.1,0,0,1,1.978,2.835l-1.342-1.356a.9.9,0,0,0-1.272,1.26l1.342,1.356a2.108,2.108,0,1,1-.706-4.095m4.521-9.243a.9.9,0,0,0-.895.895v5.246a5.017,5.017,0,0,1-3.394-5.025v-7.59c0-2.833,1.924-5.138,4.289-5.138s4.289,2.305,4.289,5.138v7.59a5.017,5.017,0,0,1-3.394,5.025v-5.246a.9.9,0,0,0-.895-.895m-.895,13.743-.322-.325a3.891,3.891,0,0,0,.322-.636Z" transform="translate(-12.114 -435.237)"/>
    <path id="패스_2779" data-name="패스 2779" d="M986.853,603.248a7.207,7.207,0,0,0,.2-1.665,7.285,7.285,0,0,0-14.327-1.87,6.115,6.115,0,0,0,1.81,11.956h3.186v3.462a.883.883,0,0,0,.884.918.885.885,0,0,0,.886-.885v-3.5h4.769a.89.89,0,0,0,.141-.011,4.643,4.643,0,0,0,2.454-8.41m-7.364,4.319,2.9-2.1a.885.885,0,1,0-1.04-1.433l-2.68,1.946-2.068-1.883a.885.885,0,1,0-1.192,1.309l2.312,2.106V609.9h-3.186a4.345,4.345,0,0,1-.885-8.6.881.881,0,0,0,.692-.709,5.514,5.514,0,1,1,10.639,2.776.888.888,0,0,0,.443,1.079,2.873,2.873,0,0,1-1.19,5.447c-.026,0-.051,0-.076.006h-4.665Z" transform="translate(-852.711 -523.289)"/>
    <path id="패스_2780" data-name="패스 2780" d="M863.042,243.789h-9.9a.99.99,0,0,1-.99-.991V183.371a.99.99,0,0,1,1.5-.849l9.9,5.943a.991.991,0,0,1,.481.849V242.8a.991.991,0,0,1-.991.99m-8.914-1.98h7.924V189.874l-7.924-4.754Z" transform="translate(-750.332 -160.59)"/>
    <path id="패스_2781" data-name="패스 2781" d="M654.183,27.737a.99.99,0,0,1-.991-.99V.995A.991.991,0,0,1,654.8.222l9.9,7.924a.991.991,0,0,1,.372.774V25.1a.991.991,0,0,1-.828.977l-9.9,1.651a1.056,1.056,0,0,1-.163.013m.99-24.682V25.577l7.924-1.32V9.395Z" transform="translate(-575.148 -0.004)"/>
    <path id="패스_2782" data-name="패스 2782" d="M338.434,243.787H322.587a.991.991,0,0,1-.991-.991V183.369a.99.99,0,0,1,1.338-.928l15.848,5.943a.991.991,0,0,1,.643.927V242.8a.99.99,0,0,1-.99.991m-14.857-1.981h13.867V190l-13.867-5.2Z" transform="translate(-283.172 -160.587)"/>
    <path id="패스_2783" data-name="패스 2783" d="M264.193,243.788H256.27a.991.991,0,0,1-.991-.99V189.312a.991.991,0,0,1,.4-.792l7.924-5.943a.991.991,0,0,1,1.585.793V242.8a.99.99,0,0,1-.99.99m-6.933-1.981H263.2V185.35l-5.943,4.457Z" transform="translate(-224.778 -160.588)"/>
    <path id="패스_2784" data-name="패스 2784" d="M463.148,83.2h-7.923a.991.991,0,0,1-.991-.99V11.82a.992.992,0,0,1,.58-.9L478.585.089a.991.991,0,0,1,1.4.9V72.3a.99.99,0,0,1-.99.991H464.139v8.914a.99.99,0,0,1-.991.99m-6.933-1.981h5.943V72.3a.991.991,0,0,1,.99-.99h14.858V2.53l-21.791,9.927Z" transform="translate(-399.962 0)"/>
    <path id="패스_2785" data-name="패스 2785" d="M677.951,243.788h-7.924a.99.99,0,0,1-.99-.991v-8.914H654.18a.991.991,0,0,1-.991-.991V187.331a.991.991,0,0,1,.828-.977l23.772-3.962a.991.991,0,0,1,1.153.977V242.8a.99.99,0,0,1-.991.99m-6.933-1.981h5.943V184.539l-21.79,3.632V231.9h14.857a.99.99,0,0,1,.991.99Z" transform="translate(-575.146 -160.588)"/>
    <path id="패스_2786" data-name="패스 2786" d="M553.238,618.667h-31.7a.99.99,0,0,1-.99-.99V597.868a.991.991,0,0,1,.99-.991h31.7a.99.99,0,0,1,.991.991v19.809a.99.99,0,0,1-.991.99m-30.7-1.982h29.714V598.857H522.533Z" transform="translate(-458.356 -525.562)"/>
    <path id="패스_2787" data-name="패스 2787" d="M135.513,764.65H.99a.99.99,0,0,1,0-1.981H135.513a.99.99,0,1,1,0,1.981" transform="translate(0 -671.545)" stroke="#000" stroke-width="1"/>
    <rect id="사각형_1595" data-name="사각형 1595" width="3.962" height="7.924" transform="translate(61.206 14.857)" fill="#d6513a"/>
    <rect id="사각형_1596" data-name="사각형 1596" width="3.962" height="7.924" transform="translate(67.148 14.857)" fill="#d6513a"/>
    <rect id="사각형_1597" data-name="사각형 1597" width="3.962" height="7.924" transform="translate(61.206 24.762)" fill="#d6513a"/>
    <rect id="사각형_1598" data-name="사각형 1598" width="3.962" height="7.924" transform="translate(67.148 24.762)" fill="#d6513a"/>
    <rect id="사각형_1599" data-name="사각형 1599" width="3.962" height="7.924" transform="translate(61.206 34.667)" fill="#d6513a"/>
    <rect id="사각형_1600" data-name="사각형 1600" width="3.962" height="7.924" transform="translate(67.148 34.667)" fill="#d6513a"/>
    <rect id="사각형_1601" data-name="사각형 1601" width="3.962" height="7.924" transform="translate(61.206 44.571)" fill="#d6513a"/>
    <rect id="사각형_1602" data-name="사각형 1602" width="3.962" height="7.924" transform="translate(45.358 34.667)" fill="#d6513a"/>
    <rect id="사각형_1603" data-name="사각형 1603" width="3.962" height="7.924" transform="translate(45.358 44.571)" fill="#d6513a"/>
    <rect id="사각형_1604" data-name="사각형 1604" width="3.962" height="7.923" transform="translate(45.358 54.477)" fill="#d6513a"/>
    <rect id="사각형_1605" data-name="사각형 1605" width="3.962" height="7.924" transform="translate(45.358 64.381)" fill="#d6513a"/>
    <rect id="사각형_1606" data-name="사각형 1606" width="3.962" height="7.924" transform="translate(67.148 44.571)" fill="#d6513a"/>
    <rect id="사각형_1607" data-name="사각형 1607" width="3.962" height="5.943" transform="translate(82.996 30.705)"/>
    <rect id="사각형_1608" data-name="사각형 1608" width="3.962" height="5.943" transform="translate(88.939 30.705)"/>
    <rect id="사각형_1609" data-name="사각형 1609" width="3.962" height="5.943" transform="translate(94.881 30.705)"/>
    <rect id="사각형_1610" data-name="사각형 1610" width="3.962" height="5.943" transform="translate(82.996 38.629)"/>
    <rect id="사각형_1611" data-name="사각형 1611" width="3.962" height="5.943" transform="translate(88.939 38.629)"/>
    <rect id="사각형_1612" data-name="사각형 1612" width="3.962" height="5.943" transform="translate(94.881 38.629)"/>
    <rect id="사각형_1613" data-name="사각형 1613" width="3.962" height="5.943" transform="translate(82.996 46.552)"/>
    <rect id="사각형_1614" data-name="사각형 1614" width="3.962" height="5.943" transform="translate(88.939 46.552)"/>
    <rect id="사각형_1615" data-name="사각형 1615" width="3.962" height="5.943" transform="translate(94.881 46.552)"/>
    <rect id="사각형_1616" data-name="사각형 1616" width="3.962" height="5.943" transform="translate(82.996 54.477)"/>
    <rect id="사각형_1617" data-name="사각형 1617" width="3.962" height="5.943" transform="translate(88.939 54.477)"/>
    <rect id="사각형_1618" data-name="사각형 1618" width="3.962" height="5.943" transform="translate(82.996 62.4)"/>
    <rect id="사각형_1619" data-name="사각형 1619" width="3.962" height="7.923" transform="translate(61.206 54.477)" fill="#d6513a"/>
    <rect id="사각형_1620" data-name="사각형 1620" width="19.81" height="3.962" transform="translate(69.129 76.267)" fill="#d6513a"/>
    <rect id="사각형_1621" data-name="사각형 1621" width="19.81" height="3.962" transform="translate(69.129 82.209)" fill="#d6513a"/>
    <path id="패스_2788" data-name="패스 2788" d="M317.16,691.658H289.428a.991.991,0,0,1-.991-.99v-9.9a.991.991,0,0,1,.991-.991H317.16a.991.991,0,0,1,.991.991v9.9a.99.99,0,0,1-.991.99m-26.742-1.982H316.17v-7.924H290.418Z" transform="translate(-253.974 -598.554)"/>
    <path id="패스_2789" data-name="패스 2789" d="M869.716,691.658a.99.99,0,0,1-.991-.99v-9.9a.99.99,0,1,1,1.981,0v9.9a.99.99,0,0,1-.99.99" transform="translate(-764.929 -598.554)"/>
  </g>
</svg>
