<svg xmlns="http://www.w3.org/2000/svg" xmlns:xlink="http://www.w3.org/1999/xlink" width="91.815" height="97.8" viewBox="0 0 91.815 97.8">
  <defs>
    <clipPath id="clip-path">
      <rect id="사각형_1634" data-name="사각형 1634" width="11.764" height="10.808" fill="#d6513a"/>
    </clipPath>
  </defs>
  <g id="그룹_10777" data-name="그룹 10777" transform="translate(-7 -20)">
    <g id="그룹_10778" data-name="그룹 10778" transform="translate(7 20)">
      <path id="패스_2970" data-name="패스 2970" d="M244.985,95.326H208.957a9.171,9.171,0,0,1-9.161-9.161v-77A9.171,9.171,0,0,1,208.957,0h36.028a9.171,9.171,0,0,1,9.161,9.161v77a9.171,9.171,0,0,1-9.161,9.161m-36.028-92.7a6.543,6.543,0,0,0-6.536,6.536v77a6.543,6.543,0,0,0,6.536,6.536h36.028a6.543,6.543,0,0,0,6.536-6.536v-77a6.543,6.543,0,0,0-6.536-6.536Z" transform="translate(-162.331)"/>
      <path id="패스_2971" data-name="패스 2971" d="M135.709,303.776h6.177V292.2h-6.177Z" transform="translate(-110.262 -237.405)" fill="#fff"/>
      <path id="패스_2972" data-name="패스 2972" d="M172.969,237.3c0-.077,0-.147.007-.23.063-1.921.212-6.42-1.459-8.172a2.355,2.355,0,0,0-1.825-.726,7.258,7.258,0,0,0-2.48.564,28.92,28.92,0,0,0-4.457,2.933c-3.19,2.513-5.074,4.841-5.324,5.554a3.371,3.371,0,0,0,1.557.446c.9.12,10.169-.2,13.98-.368" transform="translate(-127.91 -185.388)" fill="#fff"/>
      <path id="패스_2973" data-name="패스 2973" d="M62.467,237.212c.074.062,14.108.563,16.384.474a24.076,24.076,0,0,0-5.518-5.265c-3.6-2.659-7.013-4.247-9.14-4.247-.082,0-.152.013-.23.017-1.74,1.778-1.586,6.224-1.519,8.132.012.348.023.65.023.889" transform="translate(-50.705 -185.388)" fill="#fff"/>
      <path id="패스_2974" data-name="패스 2974" d="M135.709,362.683v27.575h6.7V362.683h-6.7Z" transform="translate(-110.262 -294.674)" fill="#fff"/>
      <rect id="사각형_1635" data-name="사각형 1635" width="16.806" height="26.997" transform="translate(33.059 68.587)" fill="#fff"/>
      <rect id="사각형_1636" data-name="사각형 1636" width="16.717" height="27.575" transform="translate(6.878 68.009)" fill="#fff"/>
      <path id="패스_2975" data-name="패스 2975" d="M196.9,289.268H176.3V301.4h21.015V289.681a.417.417,0,0,0-.41-.413" transform="translate(-143.241 -235.025)" fill="#fff"/>
      <path id="패스_2976" data-name="패스 2976" d="M32.777,289.268H11.818v11.663a.451.451,0,0,0,.42.466H33.2V289.681a.422.422,0,0,0-.42-.413" transform="translate(-9.602 -235.025)" fill="#fff"/>
      <rect id="사각형_1637" data-name="사각형 1637" width="1.474" height="14.067" transform="translate(49.61 28.305)"/>
      <rect id="사각형_1638" data-name="사각형 1638" width="0.835" height="14.067" transform="translate(54.226 28.305)"/>
      <rect id="사각형_1639" data-name="사각형 1639" width="0.418" height="14.067" transform="translate(68.54 28.305)"/>
      <rect id="사각형_1640" data-name="사각형 1640" width="0.418" height="14.067" transform="translate(70.682 28.305)"/>
      <rect id="사각형_1641" data-name="사각형 1641" width="0.895" height="14.067" transform="translate(71.803 28.305)"/>
      <rect id="사각형_1642" data-name="사각형 1642" width="2.558" height="14.067" transform="translate(57.954 28.305)"/>
      <rect id="사각형_1643" data-name="사각형 1643" width="1.474" height="14.067" transform="translate(51.562 28.305)"/>
      <rect id="사각형_1644" data-name="사각형 1644" width="1.029" height="14.067" transform="translate(56.437 28.305)"/>
      <rect id="사각형_1645" data-name="사각형 1645" width="2.354" height="14.067" transform="translate(61.053 28.305)"/>
      <rect id="사각형_1646" data-name="사각형 1646" width="2.354" height="14.067" transform="translate(64.949 28.305)"/>
      <rect id="사각형_1647" data-name="사각형 1647" width="2.354" height="14.067" transform="translate(73.42 28.305)"/>
      <rect id="사각형_1648" data-name="사각형 1648" width="2.354" height="14.067" transform="translate(77.315 28.305)"/>
      <path id="패스_2978" data-name="패스 2978" d="M271.637,148.277H238.059a3.956,3.956,0,0,1-3.952-3.952V128.119a3.956,3.956,0,0,1,3.952-3.952h33.579a3.956,3.956,0,0,1,3.952,3.952v16.207a3.956,3.956,0,0,1-3.952,3.952M238.059,125.1a3.017,3.017,0,0,0-3.014,3.014v16.207a3.018,3.018,0,0,0,3.014,3.014h33.579a3.017,3.017,0,0,0,3.014-3.014V128.119a3.017,3.017,0,0,0-3.014-3.014Z" transform="translate(-190.208 -100.884)"/>
      <g id="그룹_10779" data-name="그룹 10779" transform="translate(22.263 35.338)">
        <g id="그룹_10769" data-name="그룹 10769" transform="translate(0 0)" clip-path="url(#clip-path)">
          <path id="패스_2963" data-name="패스 2963" d="M5.882,10.808l-.846-.772C1.985,7.279,0,5.478,0,3.235A3.216,3.216,0,0,1,3.235,0,3.533,3.533,0,0,1,5.882,1.213,3.533,3.533,0,0,1,8.529,0a3.216,3.216,0,0,1,3.235,3.235c0,2.206-1.985,4.044-5.036,6.8Z" transform="translate(0 0)" fill="#d6513a"/>
        </g>
      </g>
      <path id="패스_2977" data-name="패스 2977" d="M53.705,231.229H46.656a2.289,2.289,0,0,0,.1-.679c0-.17.008-.415.018-.7.076-2.263.217-6.476-1.9-8.664a4.266,4.266,0,0,0-3.19-1.3c-3.3,0-7.474,3.025-9.117,4.325a26.284,26.284,0,0,0-4.423,4.359,26.284,26.284,0,0,0-4.423-4.359c-1.643-1.3-5.819-4.325-9.117-4.325a4.266,4.266,0,0,0-3.19,1.3c-2.115,2.187-1.974,6.4-1.9,8.664.009.283.018.528.018.7a2.3,2.3,0,0,0,.1.679H2.585A2.588,2.588,0,0,0,0,233.815v10.841a2.589,2.589,0,0,0,2.585,2.585H4.662v27.366a1.849,1.849,0,0,0,1.847,1.847H49.782a1.849,1.849,0,0,0,1.847-1.847V247.241h2.076a2.588,2.588,0,0,0,2.585-2.585V233.815a2.588,2.588,0,0,0-2.585-2.585m-10.423-8.5c1.462,1.512,1.332,5.392,1.276,7.049-.01.3-.019.561-.019.767-.013.011-.561.041-1.424.078-3.335.146-11.444.421-12.232.317a2.981,2.981,0,0,1-1.363-.385c.219-.614,1.867-2.623,4.658-4.79a25.338,25.338,0,0,1,3.9-2.53,8.622,8.622,0,0,1,3.607-1.133,2.076,2.076,0,0,1,1.6.627M25.448,274.238v-27h5.4v27h-5.4Zm3.958-29.213H25.448V233.51h5.4v11.515ZM14.605,222.1c1.747,0,4.553,1.37,7.506,3.663,2.791,2.168,4.439,4.176,4.658,4.79a2.979,2.979,0,0,1-1.363.385c-.043.006-.115.01-.2.013-1.869.076-13.4-.356-13.456-.409,0-.206-.009-.466-.019-.767-.055-1.645-.182-5.48,1.247-7.014.01-.011.019-.024.029-.035a2.075,2.075,0,0,1,1.6-.627m8.626,52.136H6.878v-27H23.232Zm0-29.213H2.585a.374.374,0,0,1-.369-.369V233.815a.374.374,0,0,1,.369-.369H23.232Zm26.181,29.213H33.059v-27H49.413Zm4.661-29.582a.374.374,0,0,1-.369.369H33.059v-11.58H53.705a.374.374,0,0,1,.369.369Z" transform="translate(0 -178.654)" fill="#d6513a"/>
    </g>
  </g>
</svg>
