<svg xmlns="http://www.w3.org/2000/svg" xmlns:xlink="http://www.w3.org/1999/xlink" width="45" height="45" viewBox="0 0 45 45">
  <defs>
    <clipPath id="clip-path">
      <rect id="사각형_1539" data-name="사각형 1539" width="45" height="45" transform="translate(-11475 -5378)" fill="#fff"/>
    </clipPath>
  </defs>
  <g id="마스크_그룹_29" data-name="마스크 그룹 29" transform="translate(11475 5378)" clip-path="url(#clip-path)">
    <path id="패스_4109" data-name="패스 4109" d="M176.342,1259.693a5.636,5.636,0,0,0-3.979-3.978c-3.509-.941-17.581-.941-17.581-.941s-14.072,0-17.582.941a5.636,5.636,0,0,0-3.978,3.978c-.94,3.51-.94,10.832-.94,10.832s0,7.322.94,10.831a5.638,5.638,0,0,0,3.978,3.979c3.51.939,17.582.939,17.582.939s14.072,0,17.581-.939a5.638,5.638,0,0,0,3.979-3.979c.941-3.508.941-10.831.941-10.831S177.283,1263.2,176.342,1259.693Zm-26.06,17.582v-13.5l11.691,6.75Z" transform="translate(-11607.283 -6625.774)" fill="#777"/>
  </g>
</svg>
