<svg id="그룹_12766" data-name="그룹 12766" xmlns="http://www.w3.org/2000/svg" width="45" height="45" viewBox="0 0 45 45">
  <g id="그룹_6250" data-name="그룹 6250" transform="translate(0 0)">
    <path id="패스_2444" data-name="패스 2444" d="M22.5,0A22.5,22.5,0,1,0,45,22.5,22.5,22.5,0,0,0,22.5,0M32.644,28.88a15.28,15.28,0,0,1-9.83,3.242,15.642,15.642,0,0,1-2.51-.209L14.657,35.73a.469.469,0,0,1-.261.1.345.345,0,0,1-.261-.1.322.322,0,0,1-.1-.418L15.336,30.4a12.111,12.111,0,0,1-4.706-3.922,9.015,9.015,0,0,1-1.778-5.386A9.681,9.681,0,0,1,12.931,13.3a15.575,15.575,0,0,1,9.883-3.19,15.486,15.486,0,0,1,9.83,3.19,9.481,9.481,0,0,1,0,15.582" transform="translate(0 -0.001)" fill="#777"/>
    <path id="패스_2445" data-name="패스 2445" d="M26.177,15.343a1.708,1.708,0,0,0-.89-.243H18.172a1.565,1.565,0,0,0-.97.323.972.972,0,0,0-.323.809v.243a.756.756,0,0,0,.4.566,1.71,1.71,0,0,0,.89.243h2.345v8.409a1.377,1.377,0,0,0,.4.729,1.291,1.291,0,0,0,.808.242,1.06,1.06,0,0,0,.89-.4,1.225,1.225,0,0,0,.323-.89V17.284h2.345a1.873,1.873,0,0,0,.97-.243,1.109,1.109,0,0,0,.324-.808v-.323a1.043,1.043,0,0,0-.4-.567" transform="translate(0.773 0.69)" fill="#777"/>
  </g>
</svg>
