<svg id="그룹_12765" data-name="그룹 12765" xmlns="http://www.w3.org/2000/svg" width="45" height="44.998" viewBox="0 0 45 44.998">
  <path id="패스_119" data-name="패스 119" d="M1099.533,3193.288a12.968,12.968,0,0,0-13-12.889h-19.053a12.973,12.973,0,0,0-12.937,12.957v19.082a12.972,12.972,0,0,0,12.937,12.956h19.053a12.971,12.971,0,0,0,13-12.893l0-.046v-19.1C1099.536,3193.333,1099.533,3193.311,1099.533,3193.288Zm-22.566,21.4h-.059A11.653,11.653,0,0,1,1065.3,3203a11.773,11.773,0,0,1,11.671-11.688,11.31,11.31,0,0,1,8.3,3.451,11.113,11.113,0,0,1,3.445,8.238,11.652,11.652,0,0,1-11.741,11.689Zm13.991-21.9a2.712,2.712,0,0,1-3.8,0,2.5,2.5,0,0,1-.844-1.9,2.716,2.716,0,0,1,.844-1.973,2.716,2.716,0,0,1,3.8,0,2.714,2.714,0,0,1,.844,1.973A2.49,2.49,0,0,1,1090.958,3192.792Z" transform="translate(-1054.536 -3180.397)" fill="#777"/>
  <path id="패스_120" data-name="패스 120" d="M1072.661,3191.065a7.282,7.282,0,0,0-5.344,2.254,7.457,7.457,0,0,0-2.18,5.351,7.55,7.55,0,0,0,2.18,5.423,7.435,7.435,0,0,0,5.344,2.182c.1,0,.19,0,.284,0a7.457,7.457,0,0,0,7.309-7.6v-.065A7.566,7.566,0,0,0,1072.661,3191.065Z" transform="translate(-1050.23 -3176.064)" fill="#777"/>
</svg>
