<svg xmlns="http://www.w3.org/2000/svg" width="45" height="45" viewBox="0 0 45 45">
  <path id="패스_4110" data-name="패스 4110" d="M491.064,2392.98H464.14a9.072,9.072,0,0,0-9.044,9.041V2429a9.071,9.071,0,0,0,7.98,8.983h16.066v-17.393h-5.906v-6.832h5.906v-5a8.835,8.835,0,0,1,2.391-6.621,8.677,8.677,0,0,1,6.328-2.323,38.766,38.766,0,0,1,5.273.281v6.057h-3.656a3.36,3.36,0,0,0-2.672.916,3.554,3.554,0,0,0-.633,2.394v4.295h6.68l-.844,6.832h-5.836v17.393h5.947a9.059,9.059,0,0,0,7.974-8.986v-26.957A9.05,9.05,0,0,0,491.064,2392.98Z" transform="translate(-455.095 -2392.98)" fill="#777"/>
</svg>
