<?xml version="1.0" encoding="UTF-8"?>
<svg id="_レイヤー_2" data-name="レイヤー 2" xmlns="http://www.w3.org/2000/svg" viewBox="0 0 501.37 654.53">
  <g id="icon">
    <g id="ico_file-excel">
      <path d="M442.06,0h-248.05c-5.25,0-10.29,2.09-13.99,5.81L5.78,180.44c-3.7,3.71-5.78,8.73-5.78,13.97v400.81c0,32.7,26.61,59.31,59.31,59.31h382.74c32.7,0,59.31-26.61,59.31-59.31V59.31c0-32.7-26.61-59.31-59.31-59.31ZM174.31,67.51v87.45c0,10.9-8.87,19.77-19.77,19.77h-87.21l106.98-107.22ZM461.83,595.22c0,10.9-8.87,19.77-19.77,19.77H59.31c-10.9,0-19.77-8.87-19.77-19.77V214.27h115c32.7,0,59.31-26.61,59.31-59.31V39.54h228.21c10.9,0,19.77,8.87,19.77,19.77v535.9Z" fill="#404040"/>
      <path d="M332.98,311.13h-41.22l-23.13,43.51c-2.37,4.63-4.75,9.34-7.12,14.15-2.37,4.8-4.95,10.23-7.71,16.28h-1.19c-3.36-6.05-6.28-11.47-8.75-16.28-2.47-4.8-5.09-9.52-7.86-14.15l-24.32-43.51h-43.3l58.42,95.55-62.28,101.69h41.52l25.8-46.44c2.57-4.98,5.19-10.1,7.86-15.35,2.67-5.25,5.49-10.9,8.45-16.95h1.18c3.36,6.05,6.47,11.7,9.34,16.95,2.86,5.25,5.68,10.37,8.45,15.35l26.69,46.44h43.3l-62.28-100.09,58.13-97.15Z" fill="#404040"/>
    </g>
  </g>
</svg>