<?xml version="1.0" encoding="UTF-8"?>
<svg id="_レイヤー_2" data-name="レイヤー 2" xmlns="http://www.w3.org/2000/svg" viewBox="0 0 138 160.83">
  <g id="_レイヤー_1-2" data-name="レイヤー 1">
    <g>
      <path d="M132,0H6C2.69,0,0,2.69,0,6s2.69,6,6,6h126c3.31,0,6-2.69,6-6s-2.69-6-6-6Z"/>
      <path d="M123.44,71.76l-49.13-41.35c-1.04-1.76-2.96-2.95-5.16-2.95-1.18,0-2.28.35-3.21.93-.34.19-.67.4-.97.66L14.23,71.76c-2.54,2.13-2.86,5.92-.73,8.45,2.13,2.54,5.92,2.86,8.45.73l41.19-34.67v108.56c0,3.31,2.69,6,6,6s6-2.69,6-6V46.8l40.56,34.14c1.12.95,2.5,1.41,3.86,1.41,1.71,0,3.41-.73,4.59-2.14,2.13-2.54,1.81-6.32-.73-8.45Z"/>
    </g>
  </g>
</svg>