<?xml version="1.0" encoding="UTF-8"?>
<svg id="_レイヤー_2" data-name="レイヤー 2" xmlns="http://www.w3.org/2000/svg" viewBox="0 0 501.37 654.53">
  <g id="icon">
    <g id="ico_file-txt">
      <path d="M442.06,0h-248.05c-5.25,0-10.29,2.09-13.99,5.81L5.78,180.44c-3.7,3.71-5.78,8.73-5.78,13.97v83.55h39.54v-63.68h115c32.7,0,59.31-26.61,59.31-59.31V39.54h228.21c10.9,0,19.77,8.87,19.77,19.77v218.64h39.54V59.31c0-32.7-26.61-59.31-59.31-59.31ZM154.54,174.73h-87.21l106.98-107.22v87.45c0,10.9-8.87,19.77-19.77,19.77Z" fill="#404040"/>
      <path d="M461.83,595.22c0,10.9-8.87,19.77-19.77,19.77H59.31c-10.9,0-19.77-8.87-19.77-19.77v-91.26H0v91.26c0,32.7,26.61,59.31,59.31,59.31h382.74c32.7,0,59.31-26.61,59.31-59.31v-91.26h-39.54v91.26Z" fill="#404040"/>
      <polygon points="139.61 475.41 139.61 341.32 186.61 341.32 186.61 317.62 63.5 317.62 63.5 341.32 110.27 341.32 110.27 475.41 139.61 475.41" fill="#404040"/>
      <path d="M227.43,475.41l19.19-37.15c1.91-3.98,3.86-8.08,5.85-12.28,1.99-4.2,4.08-8.72,6.29-13.56h.88c2.5,4.84,4.82,9.36,6.95,13.56,2.13,4.2,4.23,8.3,6.29,12.28l19.86,37.15h32.21l-46.33-80.07,43.24-77.72h-30.67l-17.21,34.8c-1.76,3.7-3.53,7.47-5.29,11.31-1.77,3.85-3.68,8.19-5.74,13.03h-.88c-2.5-4.84-4.67-9.18-6.51-13.03-1.84-3.84-3.79-7.61-5.85-11.31l-18.09-34.8h-32.21l43.46,76.44-46.33,81.35h30.89Z" fill="#404040"/>
      <polygon points="410.78 475.41 410.78 341.32 457.77 341.32 457.77 317.62 334.66 317.62 334.66 341.32 381.43 341.32 381.43 475.41 410.78 475.41" fill="#404040"/>
    </g>
  </g>
</svg>