<?xml version="1.0" encoding="UTF-8"?>
<svg id="_レイヤー_2" data-name="レイヤー 2" xmlns="http://www.w3.org/2000/svg" viewBox="0 0 501.36 654.53">
  <g id="icon">
    <g id="ico_file-zip">
      <path d="M442.05,0h-248.05c-5.25,0-10.29,2.09-13.99,5.81L5.78,180.44c-3.7,3.7-5.78,8.73-5.78,13.96v126.26h39.54v-106.39h115c32.7,0,59.31-26.61,59.31-59.31V39.54h146.64v32.96c0,.1.06.16.16.16h39.21c.06,0,.16-.07.16-.16v-32.96h42.02c10.9,0,19.77,8.87,19.77,19.77v261.35h39.54V59.31c0-32.7-26.61-59.31-59.31-59.31ZM154.54,174.73h-87.21l106.98-107.23v87.46c0,10.9-8.87,19.77-19.77,19.77Z" fill="#404040"/>
      <path d="M461.82,595.22c0,10.9-8.87,19.77-19.77,19.77H59.31c-10.9,0-19.77-8.87-19.77-19.77v-48.43H0v48.43c0,32.7,26.61,59.31,59.31,59.31h382.74c32.7,0,59.31-26.61,59.31-59.31v-48.43h-39.54v48.43Z" fill="#404040"/>
      <path d="M360.49,237.25c0,.1.06.16.16.16h39.21c.06,0,.16-.07.16-.16v-52.72c0-.1-.1-.17-.16-.17h-39.21c-.1,0-.16.07-.16.17v52.72Z" fill="#404040"/>
      <path d="M360.49,319.63c0,.06.06.16.16.16h39.21c.06,0,.16-.1.16-.16v-52.72c0-.1-.1-.17-.16-.17h-39.21c-.1,0-.16.07-.16.17v52.72Z" fill="#404040"/>
      <path d="M399.87,155.04c.06,0,.16-.1.16-.16v-52.72c0-.1-.1-.17-.16-.17h-39.21c-.1,0-.16.07-.16.17v52.72c0,.06.06.16.16.16h39.21Z" fill="#404040"/>
      <polygon points="95.49 528.14 210.88 528.14 210.88 504.44 131.45 504.44 210 387.43 210 370.34 102.77 370.34 102.77 394.04 174.26 394.04 95.49 511.06 95.49 528.14" fill="#404040"/>
      <rect x="240.89" y="370.34" width="29.12" height="157.79" fill="#404040"/>
      <path d="M311.27,528.14h29.12v-57.86h23.17c11.76,0,22.36-1.81,31.77-5.44,9.41-3.63,16.84-9.25,22.28-16.87,5.44-7.61,8.16-17.26,8.16-28.93s-2.76-21.71-8.27-28.83c-5.52-7.12-12.98-12.21-22.4-15.27-9.42-3.06-20.23-4.59-32.43-4.59h-51.41v157.79ZM340.39,392.98h19.86c12.21,0,21.4,1.92,27.58,5.77,6.18,3.84,9.27,10.61,9.27,20.29s-2.94,16.9-8.83,21.67-14.86,7.15-26.92,7.15h-20.96v-54.88Z" fill="#404040"/>
    </g>
  </g>
</svg>