<svg width="20" height="20" viewBox="0 0 20 20" fill="none" xmlns="http://www.w3.org/2000/svg">
<path d="M18.9286 10C18.9286 5.06884 14.9312 1.07135 10 1.07135C5.06885 1.07136 1.07136 5.06885 1.07135 10C1.07135 14.9312 5.06884 18.9286 10 18.9286C14.9312 18.9286 18.9286 14.9312 18.9286 10ZM20 10C20 15.5229 15.5229 20 10 20C4.47715 20 0 15.5229 0 10C8.83608e-06 4.47716 4.47716 8.83501e-06 10 0C15.5229 0 20 4.47715 20 10Z" fill="#CF000E"/>
<path d="M13.5119 10C13.5119 7.44111 13.0673 5.14982 12.3696 3.51831C12.0203 2.7016 11.6181 2.07495 11.1988 1.66028C10.7818 1.24788 10.3773 1.07136 10 1.07135C9.6227 1.07135 9.21816 1.24787 8.80115 1.66028C8.38189 2.07494 7.97979 2.70162 7.63051 3.51831C6.93277 5.14982 6.48812 7.44111 6.48812 10C6.48812 12.5589 6.93277 14.8502 7.63051 16.4817C7.97979 17.2984 8.38189 17.9251 8.80115 18.3397C9.21816 18.7521 9.6227 18.9286 10 18.9286C10.3773 18.9286 10.7818 18.7521 11.1988 18.3397C11.6181 17.9251 12.0203 17.2984 12.3696 16.4817C13.0673 14.8502 13.5119 12.5589 13.5119 10ZM14.5832 10C14.5832 12.6681 14.1218 15.109 13.3546 16.9029C12.9714 17.7989 12.5014 18.5583 11.9522 19.1015C11.4008 19.6469 10.7404 20 10 20C9.2596 20 8.59934 19.6469 8.04786 19.1015C7.49864 18.5583 7.02865 17.7989 6.64547 16.9029C5.87829 15.109 5.41676 12.6681 5.41676 10C5.41677 7.33189 5.87829 4.89099 6.64547 3.09709C7.02865 2.20111 7.49865 1.44169 8.04786 0.898514C8.59934 0.35311 9.25961 0 10 0C10.7404 9.48654e-06 11.4008 0.353101 11.9522 0.898514C12.5014 1.44169 12.9714 2.20111 13.3546 3.09709C14.1218 4.89099 14.5832 7.3319 14.5832 10Z" fill="#CF000E"/>
<path d="M19.4643 9.46434C19.7602 9.46434 20 9.70415 20 10C20 10.2958 19.7602 10.5357 19.4643 10.5357H0.661027C0.365181 10.5357 0.12535 10.2959 0.12535 10C0.12535 9.70417 0.365181 9.46434 0.661027 9.46434H19.4643Z" fill="#CF000E"/>
<path d="M17.8252 4.35933L17.8527 4.36006C18.1358 4.37441 18.3609 4.60841 18.3609 4.89501C18.3609 5.18161 18.1358 5.41561 17.8527 5.42995L17.8252 5.43069H2.30127C2.00542 5.43069 1.76559 5.19086 1.76559 4.89501C1.76559 4.59916 2.00542 4.35933 2.30127 4.35933H17.8252Z" fill="#CF000E"/>
<path d="M17.8252 14.5693L17.8527 14.5701C18.1358 14.5844 18.3609 14.8184 18.3609 15.105C18.3609 15.3916 18.1358 15.6256 17.8527 15.64L17.8252 15.6407H2.30127C2.00542 15.6407 1.76559 15.4009 1.76559 15.105C1.76559 14.8092 2.00542 14.5693 2.30127 14.5693H17.8252Z" fill="#CF000E"/>
</svg>
