<?xml version="1.0" encoding="UTF-8"?>
<svg id="_レイヤー_2" data-name="レイヤー 2" xmlns="http://www.w3.org/2000/svg" viewBox="0 0 501.37 654.53">
  <g id="icon">
    <g id="ico_file-pdf">
      <path d="M442.06,0h-248.05c-5.25,0-10.29,2.09-13.99,5.81L5.78,180.44c-3.7,3.71-5.78,8.73-5.78,13.97v83.55h39.54v-63.68h115c32.7,0,59.31-26.61,59.31-59.31V39.54h228.21c10.9,0,19.77,8.87,19.77,19.77v218.64h39.54V59.31c0-32.7-26.61-59.31-59.31-59.31ZM154.54,174.73h-87.21l106.98-107.22v87.45c0,10.9-8.87,19.77-19.77,19.77Z" fill="#404040"/>
      <path d="M461.83,595.22c0,10.9-8.87,19.77-19.77,19.77H59.31c-10.9,0-19.77-8.87-19.77-19.77v-91.26H0v91.26c0,32.7,26.61,59.31,59.31,59.31h382.74c32.7,0,59.31-26.61,59.31-59.31v-91.26h-39.54v91.26Z" fill="#404040"/>
      <path d="M119.54,417.55c11.76,0,22.36-1.81,31.77-5.44,9.41-3.63,16.84-9.25,22.28-16.87,5.44-7.61,8.16-17.26,8.16-28.93s-2.76-21.71-8.27-28.83c-5.52-7.12-12.98-12.21-22.4-15.27-9.42-3.06-20.23-4.59-32.43-4.59h-51.41v157.79h29.12v-57.86h23.17ZM96.37,340.25h19.86c12.21,0,21.4,1.92,27.58,5.77,6.18,3.84,9.27,10.61,9.27,20.29s-2.94,16.9-8.83,21.67c-5.88,4.77-14.86,7.15-26.92,7.15h-20.96v-54.88Z" fill="#404040"/>
      <path d="M325.95,439.76c6.25-11.81,9.38-26.4,9.38-43.77s-3.13-32.03-9.38-43.56c-6.26-11.53-15.3-20.21-27.14-26.05-11.84-5.83-26.15-8.75-42.91-8.75h-43.47v157.79h45.01c16.18,0,30.08-2.99,41.7-8.97,11.62-5.98,20.55-14.87,26.81-26.69ZM281.82,446.48c-7.72,4.06-17.03,6.08-27.91,6.08h-12.36v-112.1h12.36c10.88,0,20.19,1.92,27.91,5.76,7.72,3.85,13.61,9.82,17.65,17.94,4.04,8.12,6.07,18.72,6.07,31.82s-2.02,23.42-6.07,31.82c-4.05,8.4-9.93,14.63-17.65,18.68Z" fill="#404040"/>
      <polygon points="466.82 341.32 466.82 317.62 368.42 317.62 368.42 475.41 397.54 475.41 397.54 409.65 456.67 409.65 456.67 385.95 397.54 385.95 397.54 341.32 466.82 341.32" fill="#404040"/>
    </g>
  </g>
</svg>