<?xml version="1.0" encoding="UTF-8"?>
<svg id="_レイヤー_2" data-name="レイヤー 2" xmlns="http://www.w3.org/2000/svg" viewBox="0 0 186.68 186.68">
  <g id="icon">
    <path id="ico_globe" d="M93.34,0C41.87,0,0,41.87,0,93.34s41.87,93.34,93.34,93.34,93.34-41.87,93.34-93.34S144.81,0,93.34,0ZM164.91,135.99h-33.34c2.64-11.57,4.18-24.35,4.49-37.65h40.47c-.82,13.7-4.95,26.51-11.61,37.65ZM93.34,176.68c-8.98,0-18.54-11.49-25.01-30.69h50.02c-6.47,19.2-16.03,30.69-25.01,30.69ZM65.43,135.99c-2.7-10.91-4.46-23.61-4.8-37.65h65.42c-.34,14.04-2.1,26.74-4.8,37.65h-55.82ZM10.16,98.34h40.47c.31,13.3,1.84,26.08,4.49,37.65H21.78c-6.66-11.14-10.8-23.95-11.61-37.65ZM21.78,50.69h33.34c-2.64,11.57-4.18,24.35-4.49,37.65H10.16c.82-13.7,4.95-26.51,11.61-37.65ZM93.34,10c8.98,0,18.54,11.49,25.01,30.69h-50.02c6.47-19.2,16.03-30.69,25.01-30.69ZM121.25,50.69c2.7,10.91,4.46,23.61,4.8,37.65H60.63c.34-14.04,2.1-26.74,4.8-37.65h55.82ZM136.06,88.34c-.31-13.3-1.84-26.08-4.49-37.65h33.34c6.66,11.14,10.8,23.95,11.61,37.65h-40.47ZM157.89,40.69h-28.98c-1.27-4.15-2.68-8.1-4.26-11.78-2.67-6.25-5.7-11.56-9.01-15.85,16.81,4.68,31.49,14.48,42.25,27.64ZM71.04,13.05c-3.3,4.3-6.33,9.6-9.01,15.85-1.57,3.68-2.99,7.63-4.26,11.78h-28.98c10.75-13.16,25.44-22.96,42.25-27.64ZM28.79,145.99h28.98c1.27,4.15,2.68,8.1,4.26,11.78,2.67,6.25,5.7,11.56,9.01,15.85-16.81-4.67-31.5-14.48-42.25-27.64ZM115.64,173.63c3.3-4.3,6.33-9.6,9.01-15.85,1.57-3.68,2.99-7.63,4.26-11.78h28.98c-10.75,13.16-25.44,22.96-42.25,27.64Z" fill="#404040"/>
  </g>
</svg>