<?xml version="1.0" encoding="UTF-8"?>
<svg id="_レイヤー_2" data-name="レイヤー 2" xmlns="http://www.w3.org/2000/svg" viewBox="0 0 501.37 654.53">
  <g id="icon">
    <g id="ico_file-ppt">
      <path d="M442.06,0h-248.05c-5.25,0-10.29,2.09-13.99,5.81L5.78,180.44c-3.7,3.71-5.78,8.73-5.78,13.97v400.81c0,32.7,26.61,59.31,59.31,59.31h382.74c32.7,0,59.31-26.61,59.31-59.31V59.31c0-32.7-26.61-59.31-59.31-59.31ZM174.31,67.51v87.45c0,10.9-8.87,19.77-19.77,19.77h-87.21l106.98-107.22ZM461.83,595.22c0,10.9-8.87,19.77-19.77,19.77H59.31c-10.9,0-19.77-8.87-19.77-19.77V214.27h115c32.7,0,59.31-26.61,59.31-59.31V39.54h228.21c10.9,0,19.77,8.87,19.77,19.77v535.9Z" fill="#404040"/>
      <path d="M303.57,316.87c-12.66-3.83-27.18-5.74-43.6-5.74h-69.1v197.24h39.15v-72.33h31.14c15.82,0,30.05-2.27,42.7-6.81,12.65-4.54,22.63-11.56,29.95-21.08,7.31-9.52,10.97-21.57,10.97-36.17s-3.71-27.13-11.12-36.03c-7.41-8.89-17.45-15.25-30.1-19.08ZM294.38,399.08c-7.91,5.96-19.97,8.94-36.18,8.94h-28.18v-68.59h26.69c16.41,0,28.77,2.4,37.07,7.2,8.31,4.8,12.46,13.26,12.46,25.36s-3.96,21.13-11.86,27.09Z" fill="#404040"/>
    </g>
  </g>
</svg>