<?xml version="1.0" encoding="UTF-8"?>
<svg id="_レイヤー_2" data-name="レイヤー 2" xmlns="http://www.w3.org/2000/svg" viewBox="0 0 501.37 654.52">
  <g id="icon">
    <g id="ico_file-word">
      <path d="M442.06,0h-248.05c-5.25,0-10.29,2.09-13.99,5.81L5.78,180.44c-3.7,3.71-5.78,8.73-5.78,13.97v400.81c0,32.7,26.61,59.31,59.31,59.31h382.74c32.7,0,59.31-26.61,59.31-59.31V59.31c0-32.7-26.61-59.31-59.31-59.31ZM174.31,67.51v87.45c0,10.9-8.87,19.77-19.77,19.77h-87.21l106.98-107.22ZM461.83,595.21c0,10.9-8.87,19.77-19.77,19.77H59.31c-10.9,0-19.77-8.87-19.77-19.77V214.27h115c32.7,0,59.31-26.61,59.31-59.31V39.54h228.21c10.9,0,19.77,8.87,19.77,19.77v535.9Z" fill="#404040"/>
      <path d="M321.86,410.68c-1.58,10.32-3.26,20.73-5.04,31.23-1.78,10.5-3.46,21.08-5.04,31.76h-1.48c-2.57-10.68-4.99-21.31-7.27-31.9-2.28-10.58-4.7-20.95-7.27-31.09l-26.69-99.55h-34.1l-26.69,99.55c-2.37,10.32-4.74,20.73-7.12,31.23-2.37,10.5-4.74,21.08-7.11,31.76h-1.19c-1.78-10.68-3.61-21.26-5.49-31.76-1.88-10.5-3.81-20.91-5.78-31.23l-18.68-99.55h-40.04l43.3,197.24h47.75l26.39-103.56c1.58-7.65,3.26-15.21,5.04-22.69,1.78-7.47,3.36-15.03,4.75-22.69h1.18c1.38,7.65,2.92,15.21,4.6,22.69,1.68,7.48,3.41,15.04,5.19,22.69l26.99,103.56h48.63l41.82-197.24h-37.37l-19.28,99.55Z" fill="#404040"/>
    </g>
  </g>
</svg>