<?xml version="1.0" encoding="UTF-8"?>
<svg id="_レイヤー_2" data-name="レイヤー 2" xmlns="http://www.w3.org/2000/svg" viewBox="0 0 198.2 177.92">
  <g id="icon">
    <g id="ico_triangle-exclamation">
      <path d="M174.49,177.92H23.71c-8.56,0-16.22-4.42-20.5-11.84-4.28-7.41-4.28-16.26,0-23.67L78.6,11.84l5.27,3.04-5.27-3.04c4.28-7.41,11.94-11.84,20.5-11.84s16.22,4.42,20.5,11.84l75.39,130.58c4.28,7.41,4.28,16.26,0,23.67-4.28,7.41-11.94,11.84-20.5,11.84ZM99.1,12.17c-4.16,0-7.88,2.15-9.96,5.75L13.75,148.5c-2.08,3.6-2.08,7.9,0,11.5,2.08,3.6,5.8,5.75,9.96,5.75h150.78c4.16,0,7.88-2.15,9.96-5.75,2.08-3.6,2.08-7.9,0-11.5L109.06,17.92c-2.08-3.6-5.8-5.75-9.96-5.75Z" fill="#404040"/>
      <circle cx="99.1" cy="137.92" r="9.63" fill="#404040"/>
      <path d="M106.59,57.41c0-4.14-3.36-7.49-7.49-7.49s-7.49,3.35-7.49,7.49l2.1,51.51c0,2.98,2.42,5.4,5.4,5.4s5.4-2.42,5.4-5.4l2.1-51.51Z" fill="#404040"/>
    </g>
  </g>
</svg>