<?xml version="1.0" encoding="UTF-8"?>
<svg id="_レイヤー_2" data-name="レイヤー 2" xmlns="http://www.w3.org/2000/svg" viewBox="0 0 200.39 200.39">
  <g id="icon">
    <path id="ico_magnifying-glass" d="M198.64,190.15l-61.44-61.44c11.71-13.65,18.81-31.36,18.81-50.71C156,34.99,121.01,0,78,0S0,34.99,0,78s34.99,78,78,78c19.35,0,37.06-7.1,50.71-18.81l61.44,61.44c1.17,1.17,2.71,1.76,4.24,1.76s3.07-.59,4.24-1.76c2.34-2.34,2.34-6.14,0-8.49ZM12,78C12,41.61,41.61,12,78,12s66,29.61,66,66-29.61,66-66,66S12,114.39,12,78Z" fill="#404040"/>
  </g>
</svg>