<?xml version="1.0" encoding="UTF-8"?>
<svg id="_レイヤー_2" data-name="レイヤー 2" xmlns="http://www.w3.org/2000/svg" viewBox="0 0 178.05 177.84">
  <g id="icon">
    <g id="ico_external-link-alt">
      <path d="M137.47,177.84H16.07c-8.86,0-16.07-7.21-16.07-16.07V40.37c0-8.86,7.21-16.07,16.07-16.07h58.99c2.96,0,5.36,2.4,5.36,5.36s-2.4,5.36-5.36,5.36H16.07c-2.95,0-5.36,2.4-5.36,5.36v121.4c0,2.95,2.4,5.36,5.36,5.36h121.4c2.95,0,5.36-2.4,5.36-5.36v-58.99c0-2.96,2.4-5.36,5.36-5.36s5.36,2.4,5.36,5.36v58.99c0,8.86-7.21,16.07-16.07,16.07Z" fill="#404040"/>
      <path d="M177.95,4.37s0-.03,0-.05c-.06-.32-.16-.63-.28-.93,0-.02-.02-.05-.03-.07-.13-.31-.28-.6-.46-.87-.01-.02-.02-.04-.03-.06-.39-.59-.9-1.1-1.5-1.5-.02-.01-.04-.02-.06-.04-.27-.18-.56-.33-.87-.46-.02,0-.05-.02-.07-.02-.3-.12-.61-.21-.93-.28-.02,0-.03,0-.05,0-.32-.06-.65-.09-.99-.09h-67.07c-2.96,0-5.36,2.4-5.36,5.36s2.4,5.36,5.36,5.36h54.14l-89.56,89.56c-2.09,2.09-2.09,5.48,0,7.57,1.05,1.05,2.42,1.57,3.79,1.57s2.74-.52,3.79-1.57L167.34,18.29v59.2c0,2.96,2.4,5.36,5.36,5.36s5.36-2.4,5.36-5.36V5.36c0-.34-.03-.67-.09-.99Z" fill="#404040"/>
    </g>
  </g>
</svg>